<?xml version="1.0" standalone="no"?>
<!DOCTYPE svg PUBLIC "-//W3C//DTD SVG 20010904//EN"
 "http://www.w3.org/TR/2001/REC-SVG-20010904/DTD/svg10.dtd">
<svg version="1.0" xmlns="http://www.w3.org/2000/svg"
 width="1024.000000pt" height="1024.000000pt" viewBox="0 0 1024.000000 1024.000000"
 preserveAspectRatio="xMidYMid meet">
<metadata>
Created by potrace 1.14, written by Peter Selinger 2001-2017
</metadata>
<g transform="translate(0.000000,1024.000000) scale(0.100000,-0.100000)"
fill="#000000" stroke="none">
<path d="M815 10040 c-257 -15 -476 -56 -718 -131 l-97 -31 2 -4936 3 -4937
5118 -3 5117 -2 0 339 0 340 -42 4 -43 4 42 1 41 2 1 230 2 230 -36 0 c-28 0
-35 4 -35 20 0 22 16 27 23 8 3 -9 11 -6 26 9 18 19 21 34 21 107 0 58 -4 86
-12 89 -10 4 -10 6 0 6 9 1 12 33 12 127 l0 126 -92 -4 -93 -3 3 44 c1 25 8
51 14 58 14 17 -13 18 -30 1 -9 -9 -12 -6 -12 14 0 15 6 28 12 31 8 2 9 8 4
13 -5 5 -11 4 -13 -4 -3 -7 -10 -18 -17 -25 -6 -6 -17 -24 -23 -39 -7 -15 -23
-44 -36 -66 l-25 -38 -78 -2 c-44 -2 -80 -7 -82 -12 -2 -6 -15 -10 -28 -10
-14 0 -22 4 -19 10 3 5 -4 10 -16 10 -18 0 -19 -2 -9 -15 7 -8 23 -15 36 -15
15 0 24 -6 24 -15 0 -8 -6 -15 -12 -15 -10 0 -10 -2 0 -9 17 -10 62 -2 62 11
0 6 8 8 18 6 22 -6 49 27 29 35 -7 3 -4 6 7 6 13 1 16 -4 12 -15 -3 -9 -6 -19
-6 -23 0 -5 -11 -20 -25 -34 -17 -16 -22 -28 -15 -32 14 -9 12 -11 44 53 14
28 30 52 35 52 8 0 -7 -34 -54 -121 -5 -11 -20 -19 -33 -19 -13 0 -21 -4 -17
-10 3 -5 12 -7 20 -3 16 6 20 -7 7 -22 -9 -11 -80 -182 -110 -265 -19 -54 -20
-55 -56 -52 -21 2 -44 -2 -53 -10 -14 -12 -15 -8 -10 42 4 30 10 144 13 252 5
132 11 198 18 198 6 0 4 5 -5 10 -13 8 -18 36 -24 147 -3 76 -12 181 -19 233
-11 83 -14 92 -24 69 -5 -14 -16 -32 -24 -40 -23 -23 -57 -87 -109 -203 -28
-61 -54 -120 -59 -131 -54 -119 -121 -318 -146 -433 -9 -45 -19 -81 -21 -79
-1 2 -7 82 -13 178 -6 96 -15 199 -20 229 -5 30 -14 97 -20 149 -23 210 -102
544 -182 771 -42 120 -82 224 -98 251 -4 9 -14 35 -20 58 -6 25 -15 39 -22 35
-6 -4 -8 1 -4 14 4 11 3 23 -2 26 -12 7 -8 -54 4 -62 5 -4 10 -14 11 -22 0 -8
3 -28 6 -45 2 -16 2 -23 0 -15 -3 8 -12 20 -20 27 -9 7 -13 19 -10 27 4 9 2
18 -3 21 -6 4 -10 -3 -10 -14 0 -29 -18 -26 -26 4 -7 29 -19 32 -34 7 -8 -12
-13 -13 -16 -4 -3 6 -10 10 -15 6 -5 -3 -9 4 -9 15 0 14 5 19 15 15 9 -4 15 0
15 9 0 10 -8 15 -20 14 -15 -1 -21 -11 -26 -46 -9 -59 2 -439 16 -571 26 -244
52 -444 74 -570 13 -74 29 -171 36 -215 17 -112 50 -292 57 -313 5 -12 -1 -10
-21 8 -14 13 -24 30 -21 38 2 7 0 10 -5 7 -6 -4 -17 10 -26 30 -8 20 -21 38
-29 42 -8 3 -15 11 -15 17 0 7 -10 18 -22 25 -13 6 -40 43 -61 80 -20 38 -50
83 -66 100 -16 17 -43 51 -59 76 -16 24 -32 42 -35 39 -8 -9 4 -37 25 -55 24
-21 23 -32 -4 -55 -23 -19 -23 -19 -6 1 14 17 15 23 3 39 -8 10 -18 15 -23 12
-14 -8 -21 15 -15 47 4 20 1 27 -10 27 -8 0 -18 7 -21 16 -4 9 -9 14 -12 11
-3 -3 2 -17 11 -31 18 -28 6 -36 -15 -11 -14 17 -35 21 -25 5 3 -6 2 -10 -3
-10 -5 0 -7 -11 -5 -24 3 -13 -1 -27 -8 -31 -9 -6 -10 -1 -5 19 8 33 -9 35
-34 3 -10 -12 -22 -18 -26 -14 -5 4 24 37 64 73 39 36 72 72 72 80 0 9 5 12
13 8 6 -4 -8 14 -33 40 -24 25 -49 46 -54 46 -5 0 -21 14 -36 31 -23 28 -27
30 -39 15 -9 -10 -10 -16 -2 -16 6 0 11 5 11 11 0 5 5 7 12 3 8 -5 5 -13 -10
-25 -25 -20 -28 -29 -8 -29 14 0 29 -37 21 -51 -3 -4 -21 -10 -40 -13 -19 -4
-35 -11 -35 -16 0 -6 -9 -10 -20 -10 -11 0 -20 -6 -20 -14 0 -11 7 -12 28 -7
15 5 26 13 24 20 -1 6 4 11 12 11 7 0 29 2 47 5 33 5 33 5 7 -6 -16 -6 -28
-17 -28 -24 0 -8 -14 -15 -32 -18 -23 -3 -18 -4 14 -4 26 0 45 4 42 9 -3 4 7
8 21 8 38 0 21 -18 -23 -25 -20 -4 -57 -10 -82 -15 -25 -5 -69 -12 -98 -15
-29 -3 -63 -7 -75 -10 -40 -9 -127 -12 -132 -5 -7 11 22 20 43 13 12 -4 14 -3
7 5 -15 16 -88 3 -81 -14 3 -7 0 -16 -6 -20 -6 -4 -8 -3 -5 3 8 13 -17 24 -37
17 -8 -3 -17 -1 -21 5 -4 7 5 11 24 11 17 0 31 4 31 8 0 5 -23 9 -51 9 -28 0
-54 5 -58 9 -9 13 -111 15 -111 3 0 -6 -7 -4 -15 5 -8 8 -15 20 -15 26 0 7 -7
9 -16 6 -9 -3 -22 -6 -29 -6 -7 0 -16 -8 -18 -17 -3 -11 -5 -5 -6 12 -1 17 -8
39 -16 50 -15 19 -15 19 -31 -3 l-16 -23 -19 25 c-24 30 -24 36 1 36 11 0 20
3 20 8 0 4 -20 6 -45 4 -25 -2 -45 -8 -45 -13 0 -4 6 -6 14 -3 7 3 16 -2 19
-11 8 -19 8 -25 2 -25 -3 0 -5 3 -4 7 0 4 -9 10 -20 15 -34 12 -25 36 17 43
20 4 69 13 107 20 39 8 99 17 135 20 36 3 88 13 115 21 28 8 108 19 179 24 71
5 131 12 134 14 18 18 -241 36 -436 31 -487 -13 -562 -14 -562 -5 0 6 16 8 40
4 27 -4 40 -3 40 5 0 7 -9 9 -24 5 -13 -3 -26 -1 -30 4 -3 5 29 12 77 16 282
23 399 41 557 85 80 22 63 23 -81 1 -36 -5 -141 -16 -234 -25 -92 -8 -185 -18
-206 -21 -30 -5 -40 -3 -45 10 -4 10 -16 15 -32 14 -14 -2 -27 3 -29 10 -3 6
2 12 10 12 8 0 20 7 27 15 9 10 9 15 1 15 -6 0 -11 5 -11 10 0 6 10 10 23 10
29 1 107 36 107 50 0 5 -4 10 -10 10 -5 0 -10 -4 -10 -10 0 -5 -6 -7 -12 -5
-17 6 -88 12 -240 21 -70 4 -125 11 -122 16 3 4 9 6 14 3 5 -3 17 -1 27 4 10
6 56 20 103 31 205 51 246 62 255 72 7 7 1 9 -19 4 -20 -5 -31 -2 -40 10 -7 9
-20 14 -32 11 -18 -5 -17 -5 4 -12 23 -8 30 -25 10 -25 -7 0 -22 8 -33 16 -19
14 -19 16 -2 25 23 13 22 29 -3 29 -14 0 -20 -7 -20 -22 0 -18 -14 -18 -15 0
-3 40 -54 78 -97 74 -10 -1 -18 5 -18 13 0 10 10 13 43 10 24 -3 34 -1 24 3
-25 11 -23 26 5 34 29 9 -62 0 -125 -13 -69 -13 -201 -27 -372 -39 -82 -6
-159 -12 -169 -13 -25 -5 -68 -119 -63 -167 3 -19 29 -90 60 -157 l56 -121
-16 -58 c-8 -33 -19 -67 -24 -76 -7 -13 -5 -25 7 -43 15 -23 14 -32 -19 -167
-35 -141 -36 -144 -22 -218 39 -211 45 -249 44 -300 -1 -42 -3 -48 -8 -25 -6
29 -23 37 -48 22 -19 -12 -54 6 -43 22 7 12 11 12 23 2 9 -7 18 -8 21 -3 3 6
-6 13 -20 16 -29 8 -430 0 -744 -14 -249 -11 -611 -23 -689 -23 -61 1 -48 -10
-191 158 -150 175 -145 168 -124 177 16 7 15 8 -4 4 -18 -3 -65 38 -260 233
-130 131 -277 271 -327 312 -107 89 -315 252 -376 295 -24 17 -79 56 -121 87
-269 196 -487 329 -774 475 -189 95 -584 262 -739 312 -38 12 -74 26 -78 30
-4 3 8 33 28 65 19 32 35 62 35 67 0 4 314 9 698 9 383 1 749 4 812 8 l115 6
-115 8 c-485 32 -663 62 -833 141 -93 44 -138 78 -153 118 -7 18 -26 71 -43
118 -17 47 -35 94 -41 105 -5 11 -16 40 -24 65 -8 25 -34 97 -57 160 -23 63
-49 139 -58 167 -17 58 -26 62 -62 34 -33 -26 -103 -60 -172 -86 -57 -20 -59
-22 -78 -78 -17 -52 -18 -60 -4 -99 19 -54 19 -53 -5 -55 -13 -1 -22 6 -26 22
-5 19 -10 22 -27 16 -29 -11 -47 -3 -47 20 0 27 -18 24 -22 -3 -4 -31 -44 -37
-53 -9 -8 25 -44 38 -56 20 -6 -11 -11 -11 -20 -2 -9 9 -15 8 -27 -4 -14 -14
-17 -14 -27 1 -16 22 -25 20 -25 -4 0 -11 -5 -20 -11 -20 -6 0 -8 9 -4 20 5
16 2 20 -14 20 -13 0 -21 -7 -21 -17 -1 -17 -1 -17 -14 0 -7 9 -18 17 -25 17
-6 0 -10 5 -8 11 1 6 -4 14 -10 16 -7 3 -13 -2 -13 -11 0 -27 -17 -18 -29 14
-5 17 -15 30 -20 30 -14 0 -14 -6 -1 -30 9 -16 7 -17 -15 -6 -15 7 -20 15 -14
21 15 15 10 22 -23 29 -21 4 -34 2 -40 -6 -5 -9 -8 -6 -8 10 0 19 -5 22 -35
22 -36 0 -101 29 -117 52 -6 8 -7 3 -3 -16 l6 -28 -27 21 c-15 12 -36 21 -48
22 -11 0 -15 3 -8 6 6 2 12 9 12 14 0 6 -6 9 -12 8 -21 -4 -88 12 -94 22 -3 5
-16 9 -29 9 -15 0 -26 7 -30 20 -5 16 -10 18 -26 9 -11 -6 -25 -8 -32 -5 -7 2
-4 5 6 5 22 1 22 7 -2 32 -18 20 -19 20 -30 2 -6 -11 -11 -13 -11 -4 0 7 -6
11 -13 8 -7 -3 -26 1 -42 8 -26 11 -27 14 -12 20 10 4 24 2 32 -5 12 -10 15
-9 15 4 0 10 -8 16 -22 16 -28 0 -75 46 -56 53 9 4 8 6 -2 6 -8 0 -22 -3 -30
-9 -11 -7 -8 -11 15 -21 24 -10 26 -13 12 -16 -10 -3 -24 1 -32 7 -8 6 -19 9
-25 5 -6 -4 -10 7 -10 29 0 19 6 37 13 39 7 3 4 6 -6 6 -11 1 -21 -8 -24 -19
-7 -26 -19 -26 -26 0 -3 14 -14 20 -34 21 l-28 1 30 8 30 8 -30 1 c-16 1 -37
6 -45 12 -11 8 -3 9 33 6 26 -3 47 -3 47 -2 0 2 -39 29 -87 61 -49 33 -135
105 -194 164 -88 87 -113 119 -147 189 -49 97 -54 131 -19 131 49 0 138 -34
302 -117 93 -46 199 -102 235 -123 93 -54 221 -117 400 -196 381 -168 588
-287 698 -400 26 -27 48 -41 57 -38 8 4 15 8 15 11 0 3 -6 3 -14 0 -9 -4 -13
2 -13 19 0 13 3 21 8 18 5 -3 9 1 9 10 0 8 6 17 12 19 7 3 0 4 -17 4 -23 -2
-30 2 -29 16 1 9 -2 17 -7 17 -5 0 -9 -9 -9 -20 0 -11 4 -20 9 -20 5 0 11 -12
14 -27 l5 -27 -17 22 c-9 12 -24 43 -34 70 -10 26 -23 55 -28 64 -5 10 -9 25
-9 33 0 8 -4 15 -10 15 -5 0 -10 8 -10 18 0 13 2 14 9 3 5 -7 14 -10 20 -7 16
10 14 36 -2 30 -14 -5 -15 0 -18 64 0 20 -6 40 -12 44 -9 5 -9 10 1 20 9 9 12
9 12 -4 0 -20 16 -32 30 -23 6 4 1 18 -12 36 -14 18 -24 25 -29 18 -10 -17
-22 7 -14 31 5 17 1 21 -24 26 -37 8 -41 24 -7 24 14 0 26 7 30 18 3 9 9 23
12 30 3 6 1 12 -5 12 -6 0 -11 -6 -11 -13 0 -9 -11 -12 -35 -9 -43 5 -46 20
-6 24 27 3 28 5 16 21 -11 15 -17 16 -33 8 -17 -9 -20 -8 -18 7 2 10 12 17 25
18 31 2 37 12 16 28 -12 9 -14 15 -7 20 20 12 -10 45 -45 52 -18 3 -33 11 -33
16 0 5 10 6 22 3 16 -6 20 -4 16 7 -4 8 3 20 13 26 25 16 24 42 -1 49 -16 4
-18 9 -9 19 6 7 17 10 25 7 10 -4 14 3 14 27 0 23 -4 31 -14 27 -7 -3 -19 0
-25 6 -8 8 -11 8 -11 -1 0 -7 -8 -12 -17 -11 -12 0 -13 2 -5 6 9 3 7 10 -9 24
-12 11 -19 22 -14 27 4 4 10 1 12 -5 3 -7 16 -13 30 -13 25 0 25 1 10 18 -15
17 -15 19 4 36 12 9 27 15 34 12 9 -3 13 5 13 29 0 31 -2 34 -29 32 -29 -2
-42 -17 -14 -17 8 0 15 -6 15 -14 0 -9 -7 -12 -20 -9 -22 6 -27 37 -9 49 8 5
6 10 -5 16 -15 8 -15 11 -1 24 8 9 13 20 9 25 -9 14 15 39 32 32 28 -10 13 7
-20 24 -29 15 -32 20 -20 31 12 11 14 10 14 -3 0 -22 17 -19 23 4 6 23 -11 32
-45 24 l-23 -5 23 17 c17 12 35 16 60 12 32 -5 34 -4 15 5 -25 12 -29 23 -13
33 6 3 10 14 10 23 -1 15 -2 15 -13 2 -7 -8 -22 -23 -34 -33 l-21 -18 16 45
c9 25 23 46 29 46 7 0 13 5 13 10 0 6 -4 10 -9 10 -20 0 2 40 23 40 17 1 16 3
-9 14 -35 14 -21 28 24 22 17 -2 28 1 25 5 -3 5 -17 9 -31 9 -23 0 -25 3 -20
30 5 22 2 32 -11 39 -13 8 -10 9 16 6 41 -5 41 10 0 25 -18 7 -27 14 -20 17 6
2 12 11 12 19 0 24 19 15 26 -12 5 -19 9 -22 15 -13 5 9 0 22 -14 37 -17 18
-19 27 -11 40 6 9 20 19 30 20 40 8 40 25 0 19 -38 -6 -38 -6 -18 9 25 17 30
39 7 30 -22 -8 -18 17 5 32 11 7 20 23 20 36 0 30 24 56 53 57 18 1 17 2 -6 9
-31 9 -57 28 -57 41 0 4 12 1 28 -7 24 -12 27 -12 30 2 2 9 0 19 -5 23 -14 10
-12 69 3 75 7 3 17 0 20 -6 4 -7 2 -14 -4 -16 -7 -2 -12 -10 -12 -17 0 -19 33
-8 48 15 9 16 9 18 -2 14 -10 -4 -16 5 -21 25 -4 17 -13 31 -21 31 -8 0 -14 7
-14 15 0 15 23 11 47 -7 16 -12 34 -1 27 16 -3 8 -1 17 5 21 6 3 11 13 11 21
0 8 -5 12 -10 9 -18 -11 -37 13 -32 43 2 15 13 39 23 52 l20 25 -6 -25 c-5
-19 -4 -22 4 -10 16 22 13 42 -5 38 -14 -3 -48 -53 -90 -137 -16 -32 -17 -36
-1 -62 9 -16 13 -29 8 -29 -4 0 -14 12 -21 28 -9 19 -14 23 -18 12 -2 -8 -10
-22 -17 -30 -7 -8 -16 -26 -20 -39 -4 -12 -18 -39 -30 -57 -13 -19 -30 -48
-37 -64 -7 -17 -16 -30 -20 -30 -5 0 -8 -6 -8 -12 -1 -23 -26 -47 -56 -53 -20
-5 -25 -4 -15 3 11 8 11 10 0 15 -11 4 -12 7 -1 18 18 20 15 29 -10 26 -20 -2
-23 4 -31 51 -10 60 -17 63 -19 8 -1 -40 -12 -37 -22 6 -3 15 -2 30 4 33 32
19 -13 72 -51 60 -22 -7 -27 13 -5 21 8 3 17 12 20 20 4 11 2 12 -14 4 -15 -8
-21 -5 -33 19 -14 28 -14 30 10 36 22 5 24 25 2 25 -6 0 -7 -4 -4 -10 3 -6 -5
-10 -19 -10 -18 0 -24 4 -20 14 4 9 -3 16 -18 19 -20 4 -19 5 9 12 40 9 35 23
-7 20 -26 -2 -30 1 -24 19 17 54 -8 1 -40 -89 -21 -55 -40 -109 -45 -119 -6
-16 -15 -4 -45 60 -57 118 -93 224 -123 369 -28 129 -28 134 -28 495 0 286 4
399 19 523 10 87 16 160 14 163 -5 4 -50 -221 -78 -391 -32 -200 -49 -346 -60
-528 -6 -94 -15 -192 -20 -217 -4 -25 -18 -135 -29 -245 -33 -314 -38 -346
-55 -363 -15 -15 -16 -14 -16 6 0 13 -5 20 -13 16 -23 -8 -116 101 -160 188
-70 137 -85 182 -137 388 -52 211 -78 375 -112 705 -17 174 -17 787 0 910 23
158 61 348 82 415 38 116 107 244 176 324 76 89 71 101 -8 19 -72 -76 -216
-311 -219 -360 -1 -10 -4 -2 -8 17 -9 49 -11 763 -2 720 11 -57 18 -62 52 -44
28 14 32 14 48 0 16 -15 92 -24 78 -9 -4 3 -2 13 5 20 9 11 9 16 -2 23 -11 7
-11 11 -1 23 7 9 9 27 6 44 l-5 28 11 -25 c7 -14 11 -35 10 -47 -2 -15 3 -23
13 -23 10 0 16 9 17 23 1 16 2 18 6 5 2 -10 9 -18 15 -18 6 0 8 10 4 24 -3 14
-2 28 4 31 5 3 10 1 10 -4 0 -6 7 -11 16 -11 8 0 12 -5 9 -11 -5 -7 3 -9 21
-7 21 2 30 9 32 26 4 23 16 29 27 12 8 -13 26 -13 45 0 13 9 13 11 0 20 -13 9
-13 10 0 11 8 1 24 0 34 -1 12 -1 17 3 13 12 -3 10 5 14 34 14 30 0 39 -4 41
-20 2 -10 9 -21 17 -24 11 -4 12 4 7 34 -6 35 -5 37 7 21 13 -15 16 -15 27 -2
10 12 10 18 0 30 -10 12 -9 15 4 15 9 0 19 -7 22 -15 8 -21 32 -19 37 3 4 16
5 16 6 0 1 -14 10 -18 42 -18 35 0 40 2 30 14 -10 12 -8 17 9 26 30 16 45 2
23 -22 -17 -20 -17 -20 2 -17 14 3 20 12 19 32 0 20 5 27 19 27 16 0 18 -5 12
-32 l-6 -33 20 25 c18 23 18 26 4 42 -15 17 -15 18 3 18 24 0 38 -10 52 -35
10 -17 11 -17 12 -3 0 9 -4 20 -10 23 -35 22 31 36 71 15 20 -11 26 -1 9 16
-6 6 -6 15 0 24 8 12 10 11 10 -5 0 -16 2 -17 10 -5 8 12 10 12 16 -3 8 -23
19 -21 31 4 6 14 20 23 39 25 23 2 26 1 11 -7 -9 -6 -22 -7 -27 -4 -6 3 -10
-3 -10 -14 0 -12 -4 -21 -10 -21 -5 0 -9 -12 -8 -26 2 -23 4 -24 15 -8 7 10
13 21 13 26 0 4 11 8 24 8 16 0 27 7 31 20 3 11 11 20 16 20 5 0 9 6 9 14 0
17 82 15 88 -3 2 -6 8 -11 14 -11 6 0 5 6 -2 15 -17 21 3 46 22 27 9 -9 16 -8
30 5 10 9 34 17 53 17 19 1 35 4 35 9 0 14 38 7 44 -9 9 -22 26 -7 27 24 2 24
2 24 6 5 3 -17 11 -23 31 -23 48 0 58 17 15 25 l-38 8 30 8 c17 5 35 7 42 5 6
-3 17 2 23 10 17 19 37 18 49 -3 10 -17 10 -17 11 0 0 13 9 17 39 17 22 0 42
-5 44 -12 4 -9 6 -7 6 3 1 11 12 16 42 17 24 1 38 -2 34 -8 -3 -6 -2 -10 4
-10 5 0 12 4 15 8 5 8 -98 57 -119 57 -5 0 -12 2 -15 5 -8 9 -136 56 -240 88
-380 120 -794 174 -1155 152z m1332 -256 c-3 -3 -12 -4 -19 -1 -8 3 -5 6 6 6
11 1 17 -2 13 -5z m50 -10 c-3 -3 -12 -4 -19 -1 -8 3 -5 6 6 6 11 1 17 -2 13
-5z m43 -14 c0 -5 -12 -10 -27 -9 -25 0 -26 1 -8 9 27 12 35 12 35 0z m-270
-60 c0 -5 -4 -10 -10 -10 -5 0 -10 5 -10 10 0 6 5 10 10 10 6 0 10 -4 10 -10z
m-155 -20 c3 -5 2 -10 -4 -10 -5 0 -13 5 -16 10 -3 6 -2 10 4 10 5 0 13 -4 16
-10z m82 4 c-3 -3 -12 -4 -19 -1 -8 3 -5 6 6 6 11 1 17 -2 13 -5z m-147 -34
c0 -5 -6 -10 -14 -10 -8 0 -18 5 -21 10 -3 6 3 10 14 10 12 0 21 -4 21 -10z
m-333 -76 c-3 -3 -12 -4 -19 -1 -8 3 -5 6 6 6 11 1 17 -2 13 -5z m-134 -34 c3
-11 1 -20 -4 -20 -5 0 -9 9 -9 20 0 11 2 20 4 20 2 0 6 -9 9 -20z m-103 -22
c0 -4 -6 -8 -14 -8 -8 0 -17 4 -20 8 -2 4 4 8 15 8 10 0 19 -4 19 -8z m-93
-30 c-3 -7 -5 -2 -5 12 0 14 2 19 5 13 2 -7 2 -19 0 -25z m153 11 c0 -6 -4 -7
-10 -4 -5 3 -10 11 -10 16 0 6 5 7 10 4 6 -3 10 -11 10 -16z m-260 -23 c0 -3
-4 -8 -10 -11 -5 -3 -10 -1 -10 4 0 6 5 11 10 11 6 0 10 -2 10 -4z m35 -6 c-3
-5 -11 -10 -16 -10 -6 0 -7 5 -4 10 3 6 11 10 16 10 6 0 7 -4 4 -10z m-161
-77 c8 -18 -10 -16 -34 4 -30 26 -26 49 5 26 13 -10 26 -24 29 -30z m-194 12
c11 -13 10 -14 -4 -9 -9 3 -16 10 -16 15 0 13 6 11 20 -6z m35 -51 c-17 -17
-22 -17 -28 -1 -3 7 5 13 19 13 20 2 21 0 9 -12z m-72 -5 c-8 -8 -16 -8 -30 0
-16 9 -14 10 12 11 21 0 26 -3 18 -11z m27 -41 c0 -25 -3 -29 -10 -18 -13 20
-13 50 0 50 6 0 10 -15 10 -32z m41 9 c-1 -4 -1 -15 -1 -24 0 -16 -1 -16 -16
-1 -9 9 -13 21 -9 28 7 12 27 10 26 -3z m-426 -2172 c37 -307 156 -765 271
-1043 100 -242 375 -764 522 -989 34 -53 -14 -14 -156 127 -117 116 -168 175
-226 262 -205 310 -334 655 -395 1058 -39 255 -42 296 -46 635 -3 267 -2 312
6 210 5 -71 16 -188 24 -260z m1683 -887 c16 -16 15 -28 -2 -28 -7 0 -16 9
-19 20 -6 23 3 26 21 8z m-498 -22 c0 -3 -4 -8 -10 -11 -5 -3 -10 -1 -10 4 0
6 5 11 10 11 6 0 10 -2 10 -4z m30 -36 c0 -5 -4 -10 -9 -10 -6 0 -13 5 -16 10
-3 6 1 10 9 10 9 0 16 -4 16 -10z m30 -50 c0 -5 -4 -10 -10 -10 -5 0 -10 5
-10 10 0 6 5 10 10 10 6 0 10 -4 10 -10z m7 -62 c-3 -8 -6 -5 -6 6 -1 11 2 17
5 13 3 -3 4 -12 1 -19z m63 13 c0 -16 -12 -41 -20 -41 -4 0 -7 11 -7 25 0 15
5 25 13 25 8 0 14 -4 14 -9z m40 -151 c0 -5 -4 -10 -10 -10 -5 0 -10 5 -10 10
0 6 5 10 10 10 6 0 10 -4 10 -10z m170 -180 c0 -5 -5 -10 -11 -10 -5 0 -7 5
-4 10 3 6 8 10 11 10 2 0 4 -4 4 -10z m-30 -150 c0 -5 8 -10 17 -10 9 0 14 -3
10 -6 -8 -8 -47 5 -47 17 0 5 5 9 10 9 6 0 10 -4 10 -10z m20 -64 c0 -3 -4 -8
-10 -11 -5 -3 -10 -1 -10 4 0 6 5 11 10 11 6 0 10 -2 10 -4z m-500 -36 c0 -5
-5 -10 -11 -10 -5 0 -7 5 -4 10 3 6 8 10 11 10 2 0 4 -4 4 -10z m480 -71 c0
-5 -7 -9 -15 -9 -15 0 -20 12 -9 23 8 8 24 -1 24 -14z m-71 -20 c-12 -8 -12
-11 1 -19 13 -8 12 -10 -2 -10 -21 0 -23 13 -6 40 7 11 15 15 17 9 2 -6 -3
-15 -10 -20z m-360 -59 c11 -24 11 -24 -3 -6 -9 11 -16 24 -16 30 0 12 5 7 19
-24z m16 -40 c3 -5 1 -10 -4 -10 -6 0 -11 5 -11 10 0 6 2 10 4 10 3 0 8 -4 11
-10z m22 -72 c-3 -8 -6 -5 -6 6 -1 11 2 17 5 13 3 -3 4 -12 1 -19z m-7 -38 c0
-5 -5 -10 -11 -10 -5 0 -7 5 -4 10 3 6 8 10 11 10 2 0 4 -4 4 -10z m370 6 c0
-3 -4 -8 -10 -11 -5 -3 -10 -1 -10 4 0 6 5 11 10 11 6 0 10 -2 10 -4z m-35
-96 c3 -5 1 -10 -4 -10 -6 0 -11 5 -11 10 0 6 2 10 4 10 3 0 8 -4 11 -10z m30
0 c3 -5 1 -10 -4 -10 -6 0 -11 5 -11 10 0 6 2 10 4 10 3 0 8 -4 11 -10z m62
-133 c-3 -11 -47 -21 -47 -11 0 4 8 13 17 20 19 13 36 9 30 -9z m-80 7 c-3 -3
-12 -4 -19 -1 -8 3 -5 6 6 6 11 1 17 -2 13 -5z m30 -40 c-3 -3 -12 -4 -19 -1
-8 3 -5 6 6 6 11 1 17 -2 13 -5z m-27 -34 c0 -5 -4 -10 -10 -10 -5 0 -10 5
-10 10 0 6 5 10 10 10 6 0 10 -4 10 -10z m57 -12 c-3 -8 -6 -5 -6 6 -1 11 2
17 5 13 3 -3 4 -12 1 -19z m7 -123 c3 -8 1 -15 -4 -15 -6 0 -10 7 -10 15 0 8
2 15 4 15 2 0 6 -7 10 -15z m-34 -25 c0 -5 -2 -10 -4 -10 -3 0 -8 5 -11 10 -3
6 -1 10 4 10 6 0 11 -4 11 -10z m17 -172 c-3 -8 -6 -5 -6 6 -1 11 2 17 5 13 3
-3 4 -12 1 -19z m83 -28 c0 -11 -4 -20 -8 -20 -4 0 -8 9 -9 20 -1 11 2 20 8
20 5 0 9 -9 9 -20z m-42 -2 c-6 -18 -25 -21 -25 -3 0 8 7 15 15 15 7 0 12 -5
10 -12z m22 -64 c12 -31 12 -34 1 -34 -5 0 -11 8 -15 18 -3 9 -9 23 -12 30 -3
6 -1 12 5 12 7 0 16 -12 21 -26z m-990 -184 c8 -5 11 -10 5 -10 -5 0 -17 5
-25 10 -8 5 -10 10 -5 10 6 0 17 -5 25 -10z m650 -280 c0 -5 -2 -10 -4 -10 -3
0 -8 5 -11 10 -3 6 -1 10 4 10 6 0 11 -4 11 -10z m-76 -145 c182 -27 401 -116
474 -192 33 -36 40 -57 21 -68 -6 -4 -88 -11 -182 -16 -95 -4 -244 -17 -332
-28 -88 -11 -225 -23 -305 -26 -218 -9 -458 -33 -621 -60 -171 -29 -320 -33
-339 -10 -23 27 13 96 75 146 242 194 813 314 1209 254z m-694 -1285 c-13
-150 -53 -406 -58 -369 -2 19 -15 32 -51 52 -27 14 -57 24 -67 23 -11 -2 -13
-1 -6 1 10 4 9 8 -5 19 -11 8 -13 13 -5 14 17 0 15 20 -2 20 -8 0 -24 -12 -37
-27 l-21 -28 7 25 c4 14 12 28 17 31 6 4 6 9 -2 14 -6 4 -9 14 -6 22 3 8 1 11
-5 8 -5 -4 -7 -15 -4 -26 4 -12 2 -19 -5 -17 -7 2 -15 -4 -17 -12 -4 -13 -3
-13 7 0 9 12 11 12 8 1 -3 -11 -38 -27 -38 -17 0 6 148 279 236 436 l59 105 3
-75 c2 -41 -2 -131 -8 -200z m8060 171 c0 -12 -21 -19 -37 -13 -22 8 -14 22
12 22 14 0 25 -4 25 -9z m55 -51 c3 -5 1 -10 -4 -10 -6 0 -11 5 -11 10 0 6 2
10 4 10 3 0 8 -4 11 -10z m-1715 -355 c0 -14 -4 -25 -10 -25 -5 0 -10 11 -10
25 0 14 5 25 10 25 6 0 10 -11 10 -25z m48 -27 c-3 -7 -11 -13 -18 -13 -7 0
-15 6 -17 13 -3 7 4 12 17 12 13 0 20 -5 18 -12z m-6745 -33 c-3 -9 -8 -14
-10 -11 -3 3 -2 9 2 15 9 16 15 13 8 -4z m6791 -34 c3 -4 -6 -6 -19 -3 -14 2
-25 6 -25 8 0 8 39 4 44 -5z m-6557 -93 c-3 -8 -6 -5 -6 6 -1 11 2 17 5 13 3
-3 4 -12 1 -19z m599 -169 c-24 -57 -58 -144 -77 -194 -19 -49 -35 -82 -37
-72 -2 9 -8 17 -13 17 -5 0 -9 10 -9 23 0 18 -2 19 -10 7 -5 -8 -10 -11 -10
-6 0 4 -9 -2 -20 -15 l-21 -24 16 35 16 35 -36 -40 -36 -40 38 60 c55 89 233
325 240 320 1 0 -17 -48 -41 -106z m8311 -31 c-19 -12 -27 2 -14 22 11 18 12
19 18 2 3 -9 1 -20 -4 -24z m-2342 12 c3 -5 1 -10 -4 -10 -6 0 -11 5 -11 10 0
6 2 10 4 10 3 0 8 -4 11 -10z m2306 -53 c-10 -9 -11 -8 -5 6 3 10 9 15 12 12
3 -3 0 -11 -7 -18z m46 -34 c-3 -10 -5 -2 -5 17 0 19 2 27 5 18 2 -10 2 -26 0
-35z m-2447 27 c0 -5 -5 -10 -11 -10 -5 0 -7 5 -4 10 3 6 8 10 11 10 2 0 4 -4
4 -10z m2422 -30 c-6 -15 -11 -19 -16 -12 -4 7 -1 18 6 26 17 19 20 14 10 -14z
m-1148 -116 c19 -7 22 -23 4 -20 -7 1 -22 7 -33 14 -17 9 -17 11 -3 12 9 0 23
-3 32 -6z m-7302 -56 c-9 -9 -12 -7 -12 12 0 19 3 21 12 12 9 -9 9 -15 0 -24z
m6333 12 c-3 -5 -11 -10 -16 -10 -6 0 -7 5 -4 10 3 6 11 10 16 10 6 0 7 -4 4
-10z m982 4 c-3 -3 -12 -4 -19 -1 -8 3 -5 6 6 6 11 1 17 -2 13 -5z m43 -14 c0
-5 -4 -10 -10 -10 -5 0 -10 5 -10 10 0 6 5 10 10 10 6 0 10 -4 10 -10z m-7446
-15 c-4 -8 -11 -15 -16 -15 -6 0 -5 6 2 15 7 8 14 15 16 15 2 0 1 -7 -2 -15z
m7425 -36 c-21 -13 -29 -11 -23 6 4 8 1 15 -5 15 -6 0 -8 6 -5 14 4 12 10 10
26 -6 16 -16 18 -22 7 -29z m-7307 19 c-7 -7 -12 -8 -12 -2 0 14 12 26 19 19
2 -3 -1 -11 -7 -17z m6448 -3 c0 -14 -4 -25 -10 -25 -5 0 -10 11 -10 25 0 14
5 25 10 25 6 0 10 -11 10 -25z m70 -35 c0 -5 -5 -10 -11 -10 -5 0 -7 5 -4 10
3 6 8 10 11 10 2 0 4 -4 4 -10z m140 -20 c0 -5 -4 -10 -10 -10 -5 0 -10 5 -10
10 0 6 5 10 10 10 6 0 10 -4 10 -10z m60 -20 c0 -5 -7 -10 -15 -10 -8 0 -15 5
-15 10 0 6 7 10 15 10 8 0 15 -4 15 -10z m37 -26 c-3 -3 -12 -4 -19 -1 -8 3
-5 6 6 6 11 1 17 -2 13 -5z m1951 -1 c-10 -2 -18 -9 -18 -14 0 -5 -9 -9 -20
-9 -27 0 -25 18 3 23 30 6 57 6 35 0z m232 -39 c0 -8 -4 -14 -10 -14 -5 0 -10
9 -10 21 0 11 5 17 10 14 6 -3 10 -13 10 -21z m-7530 2 c0 -3 -30 -52 -66
-110 -39 -63 -70 -103 -76 -100 -7 4 -8 2 -4 -4 4 -6 -10 -34 -31 -62 -21 -28
-39 -46 -41 -40 -3 7 -12 4 -25 -7 l-21 -18 17 28 c10 15 13 27 7 27 -6 0 -13
-7 -16 -15 -4 -8 -11 -15 -16 -15 -6 0 -8 7 -5 14 4 10 1 13 -7 10 -8 -3 -16
4 -20 18 -5 14 -9 18 -13 11 -7 -19 -50 -16 -61 4 -11 19 7 43 32 43 10 0 13
6 9 16 -4 10 -8 12 -12 5 -9 -14 -46 -19 -46 -6 0 6 6 9 13 9 18 -2 15 4 -9
17 -17 9 -20 8 -14 -2 6 -9 3 -11 -9 -6 -12 5 -34 -4 -63 -23 -25 -17 -48 -29
-50 -26 -12 11 196 130 310 177 93 39 217 70 217 55z m5796 -11 c15 -15 10
-40 -6 -30 -5 3 -13 -2 -18 -11 -8 -14 -10 -14 -26 1 -21 22 -31 13 -16 -14
13 -26 -5 -29 -19 -3 -9 16 -10 16 -16 0 -4 -10 -17 -18 -29 -18 -18 0 -17 4
13 28 29 23 89 60 99 62 2 0 10 -7 18 -15z m121 -17 c-3 -7 -5 -2 -5 12 0 14
2 19 5 13 2 -7 2 -19 0 -25z m-61 -15 c-7 -7 -26 7 -26 19 0 6 6 6 15 -2 9 -7
13 -15 11 -17z m1754 17 c0 -5 -4 -10 -10 -10 -5 0 -10 5 -10 10 0 6 5 10 10
10 6 0 10 -4 10 -10z m-101 -31 c-6 -3 -10 -22 -8 -40 1 -19 -2 -42 -6 -51
-16 -40 10 -55 85 -50 14 1 36 0 49 -3 l23 -6 -23 -20 c-30 -25 -18 -35 20
-16 18 9 33 11 37 6 18 -30 -62 -49 -111 -26 -34 16 -45 14 -45 -10 0 -9 8
-12 28 -7 21 4 24 3 12 -5 -15 -10 -11 -13 20 -15 9 -1 19 -17 25 -40 8 -33 6
-40 -10 -52 -10 -8 -15 -14 -10 -14 5 0 5 -4 0 -9 -6 -6 -43 -11 -82 -13 -40
-1 -73 -5 -73 -9 0 -3 -7 -6 -15 -6 -10 0 -13 6 -10 18 4 10 12 46 18 79 7 33
16 58 19 55 3 -4 9 -1 14 6 4 8 3 10 -4 5 -21 -13 -13 46 25 192 10 39 19 58
24 50 4 -7 3 -15 -2 -19z m35 15 c3 -8 2 -12 -4 -9 -6 3 -10 10 -10 16 0 14 7
11 14 -7z m126 6 c0 -5 -7 -10 -16 -10 -8 0 -12 5 -9 10 3 6 10 10 16 10 5 0
9 -4 9 -10z m-1757 -27 c-7 -2 -19 -2 -25 0 -7 3 -2 5 12 5 14 0 19 -2 13 -5z
m137 -13 c0 -5 -2 -10 -4 -10 -3 0 -8 5 -11 10 -3 6 -1 10 4 10 6 0 11 -4 11
-10z m-7764 -42 c-14 -24 -53 -96 -87 -160 -33 -65 -64 -117 -69 -115 -5 1
-16 -7 -25 -18 -14 -17 -13 -15 1 12 10 18 22 29 27 26 4 -3 7 1 5 9 -3 14
158 288 169 288 3 0 -7 -19 -21 -42z m9254 21 c0 -5 -4 -9 -10 -9 -5 0 -10 7
-10 16 0 8 5 12 10 9 6 -3 10 -10 10 -16z m45 1 c3 -5 1 -10 -4 -10 -6 0 -11
5 -11 10 0 6 2 10 4 10 3 0 8 -4 11 -10z m-35 -60 c0 -5 6 -7 14 -4 16 6 31
-12 17 -20 -5 -3 -23 -3 -40 0 -34 7 -43 34 -11 34 11 0 20 -4 20 -10z m94 1
c3 -5 -1 -14 -8 -20 -16 -13 -32 2 -21 19 8 12 22 13 29 1z m-8068 -46 c-3
-20 -16 -32 -16 -14 -1 10 -5 8 -15 -5 -8 -11 -18 -16 -22 -12 -4 4 3 16 17
26 30 24 39 25 36 5z m-139 -55 c-14 -11 -28 -20 -32 -20 -10 0 38 39 49 40 5
0 -3 -9 -17 -20z m8212 -46 c6 4 11 2 11 -3 0 -6 -9 -11 -20 -11 -12 0 -20 7
-20 18 0 13 2 14 9 3 5 -7 14 -10 20 -7z m37 -49 c-19 -14 -36 -12 -36 6 0 5
12 9 28 9 26 -1 26 -1 8 -15z m-7920 -12 c-4 -9 -54 -83 -112 -165 -101 -141
-107 -148 -140 -148 -30 0 -34 3 -34 25 0 16 6 25 16 25 8 0 12 5 9 10 -5 8
-11 8 -20 0 -9 -7 -16 -6 -24 4 -10 11 -1 24 43 66 64 61 244 196 265 199 2 1
0 -6 -3 -16z m-1679 -80 c-4 -3 -1 -13 6 -22 11 -14 10 -14 -5 -2 -16 12 -16
31 -1 31 4 0 3 -3 0 -7z m8260 -25 c-3 -8 -6 -5 -6 6 -1 11 2 17 5 13 3 -3 4
-12 1 -19z m-2517 2 c0 -5 -4 -10 -10 -10 -5 0 -10 5 -10 10 0 6 5 10 10 10 6
0 10 -4 10 -10z m-5767 -15 c-3 -9 -8 -14 -10 -11 -3 3 -2 9 2 15 9 16 15 13
8 -4z m5727 5 c0 -5 -4 -10 -10 -10 -5 0 -10 5 -10 10 0 6 5 10 10 10 6 0 10
-4 10 -10z m3308 -59 c3 -19 0 -22 -13 -17 -9 3 -19 6 -21 6 -2 0 -4 9 -4 21
0 29 34 21 38 -10z m32 -28 c-11 -17 -11 -17 -6 0 3 10 6 24 7 30 0 9 2 9 5 0
3 -7 0 -20 -6 -30z m-13 -55 c-3 -7 -5 -2 -5 12 0 14 2 19 5 13 2 -7 2 -19 0
-25z m-60 -10 c-3 -7 -5 -2 -5 12 0 14 2 19 5 13 2 -7 2 -19 0 -25z m33 22 c0
-5 -2 -10 -4 -10 -3 0 -8 5 -11 10 -3 6 -1 10 4 10 6 0 11 -4 11 -10z m-7640
-10 c8 -5 11 -12 8 -16 -4 -3 -14 1 -23 10 -18 17 -9 21 15 6z m4523 -72 c3
-29 2 -56 -1 -60 -4 -3 -99 -16 -212 -28 -113 -11 -279 -29 -370 -40 -91 -11
-218 -22 -283 -26 -65 -4 -120 -10 -122 -14 -3 -4 71 -11 163 -14 92 -4 246
-11 342 -16 96 -5 243 -10 327 -10 83 0 154 -3 156 -7 2 -5 8 -41 11 -82 l7
-74 -233 8 c-286 8 -372 16 -656 55 -312 42 -314 43 -385 136 -62 81 -62 94
-5 94 15 0 37 4 50 9 13 5 93 16 178 25 85 9 173 19 195 21 22 3 105 10 185
15 178 12 614 52 641 59 4 0 9 -23 12 -51z m3137 42 c0 -5 -2 -10 -4 -10 -3 0
-8 5 -11 10 -3 6 -1 10 4 10 6 0 11 -4 11 -10z m410 -3 c0 -2 -12 -14 -27 -28
l-28 -24 24 28 c23 25 31 32 31 24z m-8051 -29 c13 -21 13 -22 -1 -10 -9 7
-23 9 -34 5 -16 -6 -17 -5 -4 10 20 21 23 21 39 -5z m7628 -10 c-3 -8 -6 -5
-6 6 -1 11 2 17 5 13 3 -3 4 -12 1 -19z m-7567 -13 c-15 -17 -40 -20 -40 -4 0
6 7 9 15 5 8 -3 15 -1 15 4 0 6 5 10 11 10 8 0 8 -5 -1 -15z m-25 -27 c5 4 5
1 1 -6 -6 -10 -11 -10 -22 -1 -8 6 -14 14 -14 16 0 3 6 0 13 -6 8 -6 18 -7 22
-3z m7833 -50 c7 10 11 10 22 -3 12 -14 15 -14 33 2 25 21 -38 -69 -64 -93 -9
-8 -28 -14 -40 -12 -21 3 -22 4 -6 19 9 9 14 19 11 22 -4 3 -1 22 6 43 9 27
15 33 21 23 7 -11 11 -12 17 -1z m339 -8 c27 0 31 -25 6 -34 -11 -5 -22 0 -31
11 -12 16 -14 16 -38 -12 l-24 -30 21 43 c15 31 25 40 32 33 6 -6 21 -11 34
-11z m-607 -16 c0 -13 -4 -24 -10 -24 -5 0 -7 7 -4 15 4 8 2 15 -4 15 -6 0
-13 -6 -15 -12 -3 -7 -6 -4 -6 7 -1 14 6 21 19 22 15 1 20 -4 20 -23z m-12
-59 c-3 -3 -9 2 -12 12 -6 14 -5 15 5 6 7 -7 10 -15 7 -18z m562 -21 c0 -2 -7
-4 -15 -4 -8 0 -15 4 -15 10 0 5 7 7 15 4 8 -4 15 -8 15 -10z"/>
<path d="M515 2400 c-8 -13 5 -13 25 0 13 8 13 10 -2 10 -9 0 -20 -4 -23 -10z"/>
<path d="M575 2330 c3 -5 8 -10 11 -10 2 0 4 5 4 10 0 6 -5 10 -11 10 -5 0 -7
-4 -4 -10z"/>
<path d="M646 2301 c-4 -7 -5 -15 -2 -18 9 -9 19 4 14 18 -4 11 -6 11 -12 0z"/>
<path d="M2356 1347 c3 -10 9 -15 12 -12 3 3 0 11 -7 18 -10 9 -11 8 -5 -6z"/>
<path d="M2160 1320 c0 -5 4 -10 9 -10 6 0 13 5 16 10 3 6 -1 10 -9 10 -9 0
-16 -4 -16 -10z"/>
<path d="M8285 1540 c-3 -5 -2 -10 4 -10 5 0 13 5 16 10 3 6 2 10 -4 10 -5 0
-13 -4 -16 -10z"/>
<path d="M10098 1353 c-10 -2 -18 -9 -18 -14 0 -11 -3 -12 45 6 30 11 34 14
15 13 -14 0 -33 -2 -42 -5z"/>
<path d="M10008 1333 c7 -3 16 -2 19 1 4 3 -2 6 -13 5 -11 0 -14 -3 -6 -6z"/>
<path d="M10010 1215 c0 -8 5 -15 10 -15 6 0 10 7 10 15 0 8 -4 15 -10 15 -5
0 -10 -7 -10 -15z"/>
<path d="M10105 1199 c-11 -16 -1 -19 13 -3 7 8 8 14 3 14 -5 0 -13 -5 -16
-11z"/>
<path d="M9981 1184 c0 -11 3 -14 6 -6 3 7 2 16 -1 19 -3 4 -6 -2 -5 -13z"/>
<path d="M10055 1191 c-3 -6 3 -15 14 -20 16 -9 18 -8 14 9 -6 21 -18 26 -28
11z"/>
<path d="M9870 771 c0 -5 5 -13 10 -16 6 -3 10 -2 10 4 0 5 -4 13 -10 16 -5 3
-10 2 -10 -4z"/>
<path d="M9845 750 c3 -5 8 -10 11 -10 2 0 4 5 4 10 0 6 -5 10 -11 10 -5 0 -7
-4 -4 -10z"/>
<path d="M9844 722 c3 -6 -2 -15 -11 -21 -10 -6 -13 -11 -7 -11 20 0 37 27 23
36 -7 4 -9 3 -5 -4z"/>
<path d="M2360 9730 c0 -5 5 -10 11 -10 5 0 7 5 4 10 -3 6 -8 10 -11 10 -2 0
-4 -4 -4 -10z"/>
<path d="M2325 9710 c-3 -6 1 -7 9 -4 18 7 21 14 7 14 -6 0 -13 -4 -16 -10z"/>
<path d="M2118 9683 c7 -3 16 -2 19 1 4 3 -2 6 -13 5 -11 0 -14 -3 -6 -6z"/>
<path d="M1860 9640 c0 -5 9 -10 20 -10 11 0 20 5 20 10 0 6 -9 10 -20 10 -11
0 -20 -4 -20 -10z"/>
<path d="M1728 9603 c7 -3 16 -2 19 1 4 3 -2 6 -13 5 -11 0 -14 -3 -6 -6z"/>
<path d="M1687 9586 c-6 -16 2 -28 14 -20 12 7 11 34 0 34 -5 0 -11 -6 -14
-14z"/>
<path d="M1455 9527 c-4 -10 -5 -21 -1 -24 10 -10 18 4 13 24 -4 17 -4 17 -12
0z"/>
<path d="M1490 9510 c0 -5 5 -10 10 -10 6 0 10 5 10 10 0 6 -4 10 -10 10 -5 0
-10 -4 -10 -10z"/>
<path d="M1210 9450 c-12 -8 -10 -10 8 -10 13 0 20 4 17 10 -7 12 -6 12 -25 0z"/>
<path d="M1134 9439 c-3 -6 -2 -15 4 -21 7 -7 14 -3 21 11 10 17 9 21 -3 21
-8 0 -18 -5 -22 -11z"/>
<path d="M1024 9419 c-3 -6 -1 -16 5 -22 8 -8 11 -5 11 11 0 24 -5 28 -16 11z"/>
<path d="M960 9349 c0 -5 5 -7 10 -4 6 3 10 8 10 11 0 2 -4 4 -10 4 -5 0 -10
-5 -10 -11z"/>
<path d="M1000 9340 c0 -5 5 -10 11 -10 5 0 7 5 4 10 -3 6 -8 10 -11 10 -2 0
-4 -4 -4 -10z"/>
<path d="M800 9324 c0 -8 5 -12 10 -9 6 3 10 10 10 16 0 5 -4 9 -10 9 -5 0
-10 -7 -10 -16z"/>
<path d="M592 9268 c6 -18 28 -21 28 -4 0 9 -7 16 -16 16 -9 0 -14 -5 -12 -12z"/>
<path d="M3032 9246 c-12 -20 -17 -36 -12 -36 10 0 24 19 26 38 2 8 5 16 8 19
8 8 3 -41 -5 -52 -5 -7 0 -11 12 -12 16 -2 19 3 14 20 -3 14 0 12 11 -8 8 -16
27 -38 41 -49 l25 -19 -17 27 c-10 14 -22 26 -27 26 -5 0 -7 3 -5 8 3 4 -7 22
-23 40 l-27 33 -21 -35z"/>
<path d="M557 9253 c-4 -3 -7 -11 -7 -17 0 -6 5 -5 12 2 6 6 9 14 7 17 -3 3
-9 2 -12 -2z"/>
<path d="M555 9189 c-11 -16 -1 -19 13 -3 7 8 8 14 3 14 -5 0 -13 -5 -16 -11z"/>
<path d="M2989 9183 c-13 -17 -13 -17 6 -3 11 8 22 16 24 17 2 2 0 3 -6 3 -6
0 -17 -8 -24 -17z"/>
<path d="M3065 9170 c3 -5 10 -10 16 -10 5 0 9 5 9 10 0 6 -7 10 -16 10 -8 0
-12 -4 -9 -10z"/>
<path d="M3166 9107 c3 -10 9 -15 12 -12 3 3 0 11 -7 18 -10 9 -11 8 -5 -6z"/>
<path d="M3340 8635 c-23 -82 -177 -341 -495 -830 -40 -60 -102 -159 -140
-220 -37 -60 -82 -132 -100 -160 -93 -144 -205 -326 -205 -331 0 -4 8 0 18 8
23 19 217 138 226 138 4 0 4 -5 1 -10 -4 -6 5 -5 19 2 14 6 26 16 26 21 0 5
-7 4 -15 -3 -9 -7 -17 -11 -20 -8 -2 2 55 46 128 98 130 94 298 228 327 263 8
10 28 20 44 23 26 4 28 3 16 -11 -11 -13 -10 -15 4 -9 9 3 16 1 16 -5 0 -8 4
-8 14 1 8 7 12 17 9 22 -3 4 -9 3 -13 -4 -5 -8 -9 -7 -14 5 -7 18 9 45 26 45
6 0 8 -7 4 -15 -4 -12 3 -15 29 -15 19 0 35 5 35 11 0 6 -7 8 -16 5 -11 -4
-18 1 -21 14 -7 27 -32 22 -62 -13 -13 -15 -26 -25 -29 -23 -6 7 50 61 61 58
4 -1 7 3 7 9 0 14 70 99 81 99 5 0 9 -5 9 -11 0 -5 -5 -7 -12 -3 -8 5 -9 2 -5
-9 4 -10 2 -16 -6 -14 -7 1 -11 -5 -9 -13 2 -8 1 -12 -3 -8 -4 3 -16 -3 -27
-14 -15 -15 -17 -22 -7 -34 17 -20 34 -17 18 4 -13 15 -12 16 3 4 10 -8 16
-19 15 -24 -1 -6 4 -13 12 -16 10 -3 13 2 8 23 -6 33 21 69 45 60 18 -7 32
-80 23 -111 -6 -17 -5 -17 5 -2 11 18 3 168 -9 168 -14 0 0 111 23 175 36 102
50 226 43 395 -5 145 -26 248 -60 294 -13 17 -15 15 -27 -29z m-15 -805 c-3
-5 -1 -19 5 -31 9 -16 9 -24 -1 -33 -9 -8 -10 -8 -5 1 4 7 2 22 -4 33 -10 18
-7 40 6 40 3 0 2 -4 -1 -10z"/>
<path d="M4559 7837 c-73 -25 -143 -72 -133 -89 4 -6 2 -8 -4 -4 -13 8 -54
-43 -48 -61 3 -7 0 -12 -6 -10 -6 1 -20 -23 -31 -53 -18 -48 -22 -83 -25 -272
-2 -120 -7 -218 -10 -218 -4 0 -6 -59 -4 -130 2 -72 6 -129 10 -126 4 2 5 -16
3 -40 -1 -24 -6 -44 -10 -44 -7 0 -4 -340 4 -348 7 -7 6 -77 -1 -85 -8 -7 -6
-259 2 -388 l7 -96 -79 -43 c-44 -24 -81 -45 -83 -46 -2 -2 8 -15 22 -28 l27
-25 25 23 c14 13 25 33 25 45 0 22 20 30 20 9 0 -7 5 -5 11 5 5 9 7 22 4 27
-3 6 -2 10 3 10 17 0 23 -80 21 -304 l-1 -221 -62 -48 c-99 -78 -148 -127
-142 -144 4 -9 14 -13 25 -10 12 3 21 -1 25 -12 3 -9 18 -32 32 -51 l26 -35
-7 30 c-7 29 -7 29 8 10 12 -14 16 -16 17 -6 0 8 3 11 6 8 4 -4 1 -14 -7 -23
-13 -16 -12 -17 9 -12 15 4 25 2 28 -7 3 -8 11 -12 18 -9 8 3 13 33 15 87 1
45 4 83 7 86 2 2 4 -139 4 -315 l0 -319 -25 -54 c-14 -30 -23 -56 -20 -59 3
-3 5 -1 5 3 0 5 7 0 16 -11 8 -10 13 -13 9 -6 -3 6 -2 12 3 12 33 0 64 -180
50 -302 -11 -107 -32 -156 -71 -166 -38 -11 -60 -4 -53 14 3 8 1 14 -5 14 -5
0 -12 -7 -15 -15 -7 -16 -34 -21 -34 -6 0 9 -46 8 -56 -1 -3 -3 11 -9 31 -12
19 -4 45 -17 57 -29 16 -17 20 -18 15 -4 -4 9 -2 17 3 17 6 0 10 -4 10 -9 0
-5 10 -7 23 -4 16 3 18 2 8 -5 -11 -8 -9 -14 8 -31 12 -12 25 -19 30 -17 9 6
21 -90 21 -175 0 -81 -15 -111 -54 -108 -17 2 -48 -1 -69 -5 -26 -6 -42 -5
-50 3 -6 6 -21 11 -33 11 -30 0 -44 20 -63 93 -12 43 -15 72 -9 92 15 51 14
181 -1 198 -7 9 -9 22 -5 28 5 9 2 10 -9 6 -11 -4 -14 -2 -11 8 9 22 -47 71
-90 79 -21 4 -40 5 -42 3 -3 -2 0 -35 5 -73 6 -38 13 -96 16 -129 2 -33 8 -94
11 -137 8 -92 17 -111 38 -83 18 23 20 35 6 35 -5 0 -10 -7 -10 -15 0 -8 -4
-15 -10 -15 -14 0 -12 37 3 43 9 4 8 8 -3 16 -13 10 -13 12 0 21 8 5 22 10 31
10 25 0 30 12 14 36 -12 19 -12 23 0 27 7 3 19 -2 27 -11 11 -13 11 -14 -1 -7
-11 6 -13 3 -8 -14 7 -29 -1 -51 -19 -51 -10 0 -10 -9 4 -45 18 -50 30 -54 13
-4 -13 37 0 62 21 41 9 -9 9 -12 0 -12 -7 0 -12 -7 -12 -15 0 -8 5 -14 11 -12
6 1 14 -4 17 -12 2 -8 0 -11 -6 -8 -5 4 -12 -4 -14 -18 -3 -13 -2 -22 3 -20 4
3 9 2 12 -2 2 -5 2 -2 1 5 -2 6 0 12 5 12 8 0 24 -42 26 -67 0 -6 4 -15 9 -20
5 -4 6 -3 2 5 -4 6 -2 12 3 12 6 0 11 -4 11 -8 0 -5 16 -14 35 -22 19 -8 35
-17 35 -22 0 -4 11 -8 24 -8 13 0 29 -7 36 -15 14 -17 35 -20 24 -4 -4 7 -1
10 7 7 8 -3 22 -1 32 4 15 8 17 3 17 -45 0 -207 102 -359 278 -414 67 -21
1630 -32 1719 -12 32 8 64 13 70 12 7 0 10 3 7 8 -3 5 -1 9 5 9 5 0 12 -4 16
-9 8 -14 -30 -32 -52 -25 -15 5 -15 4 -3 -5 8 -6 23 -11 33 -11 9 0 17 -6 17
-12 0 -9 3 -9 8 -2 4 5 18 18 32 27 13 9 20 17 14 17 -5 0 -20 -7 -32 -16 -12
-8 -22 -11 -22 -5 0 5 4 12 10 16 5 3 7 12 4 19 -6 15 42 50 57 41 5 -4 8 -2
7 3 -4 11 68 92 76 86 3 -2 4 -1 2 2 -2 3 10 36 27 72 31 66 32 70 32 212 0
136 -2 149 -28 214 -15 38 -26 75 -23 83 4 9 2 11 -6 7 -8 -5 -9 -2 -3 12 11
28 16 121 4 103 -5 -8 -6 -22 -3 -31 3 -10 2 -28 -2 -40 -6 -19 -10 -12 -20
37 -16 73 -18 233 -4 306 13 66 57 184 76 204 13 12 14 81 12 447 l-3 433 -28
85 c-15 47 -46 155 -68 240 -68 259 -57 410 43 561 24 35 47 67 53 71 13 9 7
1231 -6 1302 -24 130 -111 241 -227 288 l-57 23 -845 2 -845 3 -66 -23z m238
7 c-3 -3 -12 -4 -19 -1 -8 3 -5 6 6 6 11 1 17 -2 13 -5z m196 -1 c-29 -2 -78
-2 -110 0 -32 2 -8 3 52 3 61 0 87 -1 58 -3z m364 1 c-3 -3 -12 -4 -19 -1 -8
3 -5 6 6 6 11 1 17 -2 13 -5z m256 -1 c-40 -2 -106 -2 -145 0 -40 1 -8 3 72 3
80 0 112 -2 73 -3z m280 0 c-7 -2 -21 -2 -30 0 -10 3 -4 5 12 5 17 0 24 -2 18
-5z m572 -83 c10 -11 16 -20 13 -20 -3 0 -13 9 -23 20 -10 11 -16 20 -13 20 3
0 13 -9 23 -20z m46 -47 c13 -16 12 -17 -3 -4 -10 7 -18 15 -18 17 0 8 8 3 21
-13z m-404 -90 c-4 -17 -4 -17 -12 0 -4 9 -4 25 0 35 8 16 8 16 12 0 3 -10 3
-26 0 -35z m113 39 c0 -5 -11 -18 -23 -31 l-24 -22 -1 31 c-1 25 3 30 24 30
13 0 24 -4 24 -8z m148 -19 c3 -19 -2 -23 -25 -25 -51 -3 -76 1 -84 14 -13 20
21 39 66 36 33 -2 41 -7 43 -25z m-1700 -8 c0 -18 -6 -25 -19 -25 -21 0 -27
30 -6 31 6 0 3 4 -8 9 -18 8 -17 9 6 9 22 1 27 -4 27 -24z m58 1 c-1 -17 -7
-23 -22 -22 -18 1 -20 4 -11 24 13 29 35 28 33 -2z m46 -1 c-2 -14 -8 -25 -13
-25 -5 0 -9 11 -9 25 0 14 6 25 14 25 9 0 12 -8 8 -25z m1392 10 c3 -8 1 -15
-3 -15 -5 0 -11 7 -15 15 -3 8 -1 15 3 15 5 0 11 -7 15 -15z m-84 -9 c0 -8 -4
-18 -10 -21 -5 -3 -10 3 -10 14 0 12 5 21 10 21 6 0 10 -6 10 -14z m-30 -12
c0 -8 -5 -12 -10 -9 -6 4 -8 11 -5 16 9 14 15 11 15 -7z m-1482 -180 c24 -7
30 -24 8 -24 -24 0 -30 -21 -7 -27 27 -7 27 -19 -1 -28 l-23 -8 23 -4 c35 -7
26 -23 -13 -23 l-35 0 0 53 c0 68 4 72 48 61z m1800 -10 c12 -8 22 -20 22 -26
0 -7 -6 -4 -13 6 -19 26 -61 18 -65 -12 -2 -13 2 -30 8 -38 15 -17 60 -19 60
-2 0 9 3 9 11 1 19 -19 0 -33 -34 -26 -54 9 -76 62 -41 97 19 20 24 20 52 0z
m-1284 -10 c20 -19 5 -54 -24 -54 -11 0 -20 -9 -23 -22 -2 -13 -5 3 -6 35 -1
50 1 57 18 57 11 0 27 -7 35 -16z m526 6 c0 -5 -4 -10 -10 -10 -5 0 -10 5 -10
10 0 6 5 10 10 10 6 0 10 -4 10 -10z m-57 -7 c-20 -4 -23 -11 -23 -49 0 -28
-4 -43 -10 -39 -5 3 -10 24 -10 45 0 28 -5 40 -17 43 -10 3 5 5 32 4 28 0 40
-2 28 -4z m24 -75 c-2 -13 -4 -3 -4 22 0 25 2 35 4 23 2 -13 2 -33 0 -45z
m-440 34 c-10 -10 -17 -26 -17 -35 0 -9 -4 -17 -10 -17 -5 0 -10 7 -10 16 0
25 20 54 37 54 15 0 15 -2 0 -18z m89 -18 c8 -33 -2 -43 -34 -35 -21 6 -26 13
-24 32 5 44 47 47 58 3z m154 6 c0 -4 -12 -13 -27 -18 -28 -10 -28 -10 -3 -11
17 -1 21 -4 13 -12 -15 -15 -53 6 -53 31 0 25 29 41 52 29 10 -5 18 -14 18
-19z m337 -10 l2 -35 -10 33 c-11 36 -29 34 -29 -4 0 -13 -4 -24 -10 -24 -5 0
-10 11 -10 25 0 16 -6 25 -15 25 -9 0 -15 -9 -15 -25 0 -14 -4 -25 -10 -25 -5
0 -10 15 -10 33 l0 32 53 0 52 0 2 -35z m73 36 c0 -2 3 -11 6 -20 4 -12 0 -16
-15 -16 -12 0 -21 -5 -21 -11 0 -6 9 -9 20 -6 11 3 20 1 20 -5 0 -5 -12 -8
-27 -6 -31 3 -42 30 -23 53 11 14 40 21 40 11z m70 -7 c0 -5 -4 -7 -10 -4 -17
10 -11 -7 7 -20 9 -7 13 -17 9 -23 -9 -14 -46 -16 -46 -2 0 5 7 7 15 4 20 -8
19 6 -2 21 -9 7 -13 17 -9 23 9 15 36 16 36 1z m-577 -18 c3 13 8 21 11 19 8
-9 -5 -55 -23 -79 l-18 -23 1 34 c0 18 -4 42 -8 53 -6 17 -4 16 12 -4 l19 -24
6 24z m140 4 c-12 -8 -24 -25 -26 -38 -3 -13 -5 -8 -6 16 -1 34 1 37 26 37 27
0 27 0 6 -15z m54 -402 c-3 -10 -5 -4 -5 12 0 17 2 24 5 18 2 -7 2 -21 0 -30z
m-27 -4 c0 -5 -10 -8 -22 -8 -18 1 -19 2 -5 6 9 2 14 9 11 15 -4 7 -2 8 4 4 7
-4 12 -11 12 -17z m-1133 -71 c-3 -8 -6 -5 -6 6 -1 11 2 17 5 13 3 -3 4 -12 1
-19z m1079 -26 c7 -4 14 -16 16 -27 4 -18 6 -17 18 7 16 34 30 27 30 -16 l0
-32 -52 0 c-29 0 -45 1 -35 3 21 5 23 23 2 23 -15 0 -21 31 -8 43 8 9 15 9 29
-1z m104 -10 c0 -10 7 -27 15 -38 13 -18 14 -17 15 19 0 20 5 37 11 37 6 0 9
-16 7 -37 -3 -36 -5 -38 -38 -39 -35 -2 -35 -2 -32 37 4 39 22 56 22 21z m425
-33 c-11 -26 -14 -28 -10 -9 2 14 5 34 5 45 0 13 3 16 11 8 7 -7 6 -20 -6 -44z
m261 33 c-18 -4 -18 -5 4 -22 24 -18 20 -40 -8 -40 -14 0 -15 2 -2 10 12 8 12
11 -3 28 -13 14 -14 21 -5 30 6 6 16 8 22 4 7 -4 3 -8 -8 -10z m122 1 c12 -23
-3 -63 -23 -63 -10 0 -15 10 -15 33 0 48 21 64 38 30z m-1673 -2 c7 -12 -15
-61 -27 -61 -5 0 -4 9 2 21 7 11 9 27 6 35 -6 15 9 20 19 5z m51 -6 c4 -8 10
-15 15 -15 5 0 9 7 9 15 0 8 9 15 20 15 16 0 20 -7 20 -35 0 -28 -4 -35 -19
-35 -10 0 -22 7 -25 17 -6 15 -8 14 -20 -2 -13 -18 -36 -14 -36 7 0 7 6 6 15
-2 13 -11 15 -8 15 13 0 16 -7 27 -17 30 -17 4 -17 5 0 6 10 0 20 -6 23 -14z
m334 -1 c0 -21 -19 -54 -31 -54 -6 0 -3 10 5 22 11 16 13 25 4 35 -8 10 -7 13
6 13 9 0 16 -7 16 -16z m34 1 c-4 -8 -1 -15 5 -15 6 0 11 8 11 17 0 13 3 14
11 6 7 -7 9 -22 4 -40 -6 -19 -9 -23 -12 -11 -5 19 -33 33 -33 16 0 -6 -3 -9
-6 -5 -8 8 5 47 16 47 5 0 7 -7 4 -15z m80 -12 c-11 -45 -24 -51 -24 -10 0 26
4 37 15 37 12 0 14 -7 9 -27z m706 16 c0 -6 -9 -22 -20 -36 -11 -14 -20 -22
-20 -18 0 5 7 17 17 27 9 10 13 21 8 26 -4 4 -10 1 -12 -5 -6 -18 -23 -16 -23
2 0 9 9 15 25 15 14 0 25 -5 25 -11z m49 -20 c10 -28 9 -30 -12 -23 -29 9 -30
9 -22 33 9 30 21 26 34 -10z m361 22 c0 -5 -5 -11 -12 -13 -7 -3 -9 -12 -5
-22 4 -9 11 -14 17 -11 5 3 10 1 10 -5 0 -6 -8 -10 -17 -8 -19 3 -28 30 -19
54 6 15 26 19 26 5z m-804 -140 c-4 -5 0 -12 6 -14 8 -3 6 -6 -4 -6 -10 -1
-18 6 -18 14 0 8 5 15 11 15 5 0 8 -4 5 -9z m34 -8 c0 -10 -4 -24 -9 -31 -5
-9 -8 -3 -7 17 1 32 16 45 16 14z m-30 -33 c0 -5 -2 -10 -4 -10 -3 0 -8 5 -11
10 -3 6 -1 10 4 10 6 0 11 -4 11 -10z m-1133 -422 c-2 -13 -4 -5 -4 17 -1 22
1 32 4 23 2 -10 2 -28 0 -40z m682 -11 c-3 -27 2 -39 15 -34 17 7 26 -14 25
-51 l-1 -27 -7 29 c-8 38 -31 47 -31 12 0 -13 -4 -28 -10 -31 -6 -4 -10 18
-10 60 0 43 4 64 10 60 6 -4 10 -12 9 -18z m-159 -11 c0 -15 7 -26 20 -29 15
-4 20 -14 20 -36 0 -17 -4 -31 -10 -31 -5 0 -10 14 -10 30 0 17 -4 30 -10 30
-5 0 -10 -13 -10 -30 0 -16 -4 -30 -10 -30 -6 0 -10 27 -10 60 0 33 4 60 10
60 6 0 10 -11 10 -24z m-129 4 c13 -7 19 -21 19 -44 0 -37 -15 -55 -54 -62
-26 -4 -26 -3 -26 56 0 54 2 60 21 60 11 0 29 -5 40 -10z m1183 -33 c18 -49
20 -67 6 -67 -5 0 -10 7 -10 15 0 21 -37 19 -49 -2 -5 -10 -12 -15 -15 -12 -8
7 34 109 44 109 4 0 15 -19 24 -43z m-1134 18 c0 -8 9 -15 20 -15 17 0 20 -6
19 -37 -1 -36 -2 -37 -8 -9 -7 36 -25 36 -29 1 -6 -45 -22 -26 -22 25 0 28 5
50 10 50 6 0 10 -7 10 -15z m1520 -40 c-5 -7 -7 -15 -3 -18 3 -4 -1 -7 -10 -7
-9 0 -17 -4 -17 -10 0 -5 -4 -10 -10 -10 -5 0 -10 6 -10 14 0 7 -10 16 -22 20
-19 5 -20 8 -9 15 12 8 12 12 2 24 -10 13 -9 15 7 10 11 -2 23 0 26 6 4 6 16
2 31 -11 17 -15 22 -25 15 -33z m-1200 -6 c0 -21 -4 -39 -10 -39 -5 0 -10 21
-10 46 0 27 4 43 10 39 6 -3 10 -24 10 -46z m-154 -29 c9 0 14 11 14 30 0 17
5 30 10 30 6 0 10 -15 10 -34 0 -38 -20 -52 -51 -36 -20 11 -24 27 -11 57 5
14 8 11 10 -14 2 -21 9 -33 18 -33z m202 46 c-10 -7 -18 -23 -18 -35 0 -11 -4
-21 -10 -21 -11 0 -14 53 -3 63 3 4 16 7 27 7 20 -1 20 -2 4 -14z m827 -6
c-17 -6 -17 -7 4 -13 13 -3 21 -11 19 -19 -5 -16 -48 -24 -48 -9 0 6 8 8 18 5
16 -5 16 -5 0 9 -10 8 -18 19 -18 25 0 13 21 21 34 14 5 -3 1 -8 -9 -12z m85
10 c0 -5 -7 -10 -15 -10 -9 0 -15 -9 -15 -25 0 -14 -4 -25 -10 -25 -11 0 -14
53 -3 63 10 11 43 8 43 -3z m115 -29 c-3 -6 -11 -11 -16 -11 -5 0 -4 6 3 14
14 16 24 13 13 -3z m-1838 -113 c-3 -8 -6 -5 -6 6 -1 11 2 17 5 13 3 -3 4 -12
1 -19z m-110 -288 c1 -11 -2 -20 -8 -20 -5 0 -9 5 -9 10 0 6 -8 10 -17 11 -15
0 -15 2 2 9 29 12 31 12 32 -10z m713 -170 c5 -3 5 -21 0 -40 -7 -32 -8 -33
-9 -7 -1 15 -5 27 -11 27 -5 0 -10 17 -9 38 0 34 1 35 10 12 6 -13 14 -27 19
-30z m-206 24 c34 -33 12 -94 -34 -94 -30 0 -30 1 -30 55 0 52 2 55 24 55 14
0 32 -7 40 -16z m62 -24 c21 0 41 -47 26 -62 -9 -9 -12 -6 -12 15 0 17 -5 27
-15 27 -9 0 -15 -9 -15 -25 0 -14 -4 -25 -10 -25 -5 0 -10 22 -10 48 0 50 13
80 18 43 2 -12 10 -21 18 -21z m1118 0 c9 -22 16 -48 16 -58 -1 -16 -1 -16
-14 1 -17 22 -42 22 -50 1 -4 -9 -9 -14 -12 -11 -8 8 25 107 36 107 4 0 15
-18 24 -40z m366 5 c13 8 29 -20 24 -42 -8 -28 -34 -34 -58 -14 -11 9 -16 10
-12 4 4 -7 2 -13 -3 -13 -12 0 -14 29 -5 54 3 9 12 16 20 16 8 0 15 6 15 13 1
6 3 4 6 -6 2 -9 8 -15 13 -12z m-1376 -21 c9 -24 7 -54 -4 -54 -5 0 -10 11
-10 25 0 16 -6 25 -15 25 -9 0 -15 -9 -15 -25 0 -14 -4 -25 -10 -25 -11 0 -13
30 -4 54 3 9 16 16 29 16 13 0 26 -7 29 -16z m106 7 c0 -5 -6 -11 -14 -14 -8
-3 -16 -16 -19 -29 -3 -15 -5 -10 -6 15 -1 31 2 37 19 37 11 0 20 -4 20 -9z
m980 -1 c0 -5 -8 -7 -17 -4 -10 2 -8 -1 5 -7 12 -7 22 -18 22 -26 0 -19 -29
-28 -43 -14 -8 8 -6 11 9 11 18 1 18 1 0 15 -10 7 -15 18 -11 24 8 14 35 14
35 1z m70 0 c0 -5 -7 -10 -15 -10 -8 0 -15 -9 -15 -19 0 -11 -4 -23 -10 -26
-6 -4 -10 8 -10 29 0 32 3 36 25 36 14 0 25 -4 25 -10z m-1733 -382 c-3 -7 -5
-2 -5 12 0 14 2 19 5 13 2 -7 2 -19 0 -25z m402 -208 c23 -44 27 -70 11 -70
-5 0 -10 5 -10 10 0 15 -48 12 -53 -2 -2 -7 -7 -10 -11 -7 -5 5 32 109 39 109
2 0 12 -18 24 -40z m68 20 c-3 -13 0 -20 9 -20 8 0 14 7 14 15 0 21 17 19 22
-3 7 -25 -2 -82 -13 -82 -5 0 -9 11 -9 25 0 16 -6 25 -15 25 -9 0 -15 -9 -15
-25 0 -36 -17 -31 -22 7 -3 20 1 42 10 55 18 28 26 29 19 3z m1123 -35 c7 -25
10 -48 6 -52 -3 -3 -6 -1 -6 5 0 18 -41 14 -56 -5 -17 -23 -18 -4 0 38 7 19
16 42 19 52 10 27 23 13 37 -38z m380 -25 c-5 -9 -16 -22 -24 -30 -13 -10 -16
-10 -16 4 0 9 -8 16 -20 16 -11 0 -20 4 -20 9 0 21 13 41 26 41 8 0 14 4 14
10 0 5 11 0 25 -12 18 -15 22 -25 15 -38z m-1381 27 c13 -16 5 -27 -21 -27
-10 0 -18 -4 -18 -10 0 -5 10 -10 23 -10 17 0 19 -2 8 -9 -20 -13 -51 5 -51
27 0 36 38 54 59 29z m87 -9 c3 -10 1 -26 -5 -35 -9 -15 -10 -14 -11 10 0 36
-31 34 -41 -3 -6 -22 -7 -21 -8 11 -1 33 1 35 29 35 20 0 32 -6 36 -18z m68
16 c18 -7 23 -64 6 -64 -5 0 -10 11 -10 25 0 16 -6 25 -16 25 -12 0 -15 -7
-11 -25 3 -16 0 -24 -7 -22 -16 5 -20 36 -6 52 14 17 21 18 44 9z m94 -6 c30
-30 -4 -77 -41 -57 -29 17 -15 69 18 69 6 0 16 -5 23 -12z m66 6 c10 -4 16
-17 15 -38 -1 -28 -2 -29 -8 -7 -9 34 -31 39 -31 7 0 -14 -4 -26 -10 -26 -15
0 -12 57 3 63 6 3 13 6 14 6 1 1 8 -2 17 -5z m747 -12 c-8 -3 -7 -8 5 -16 9
-7 14 -18 10 -24 -9 -14 -46 -16 -46 -2 0 5 7 7 15 4 20 -8 19 6 -2 22 -15 12
-16 15 -3 23 8 5 19 7 24 4 6 -4 5 -8 -3 -11z m67 0 c-11 -2 -18 -13 -18 -28
0 -13 -4 -24 -10 -24 -10 0 -14 53 -4 62 3 3 15 3 27 0 18 -5 19 -7 5 -10z
m112 3 c0 -8 -2 -15 -4 -15 -2 0 -6 7 -10 15 -3 8 -1 15 4 15 6 0 10 -7 10
-15z m15 -35 c3 -5 2 -10 -4 -10 -5 0 -13 5 -16 10 -3 6 -2 10 4 10 5 0 13 -4
16 -10z m-1217 -537 c-2 -22 1 -28 17 -28 15 0 21 -8 23 -32 2 -19 -1 -33 -7
-33 -6 0 -11 11 -11 25 0 14 -4 25 -10 25 -5 0 -10 -11 -10 -25 0 -14 -4 -25
-10 -25 -6 0 -10 27 -10 60 0 36 4 60 11 60 6 0 9 -12 7 -27z m122 11 c0 -8
-5 -12 -10 -9 -6 4 -8 11 -5 16 9 14 15 11 15 -7z m-331 -51 c-1 -32 -4 -47
-6 -33 l-5 24 -13 -24 -13 -23 -15 29 c-15 26 -16 27 -17 7 0 -12 -4 -25 -10
-28 -6 -4 -10 13 -10 44 0 57 16 67 33 21 11 -28 27 -41 27 -21 0 15 19 61 25
61 3 0 4 -26 4 -57z m371 31 c0 -15 4 -23 10 -19 15 9 40 -13 40 -35 0 -25
-25 -43 -50 -35 -17 5 -20 15 -20 61 0 30 5 54 10 54 6 0 10 -12 10 -26z m868
-25 c9 -1 28 -2 42 -3 19 -1 26 -7 28 -28 3 -25 1 -27 -31 -26 -30 1 -33 4
-29 25 3 16 0 23 -12 23 -11 0 -16 -9 -17 -27 0 -25 -1 -26 -9 -8 -11 25 -12
79 -2 89 4 4 8 -4 10 -18 2 -16 10 -27 20 -27z m310 -5 c12 -9 10 -15 -14 -38
-23 -21 -30 -23 -32 -11 -3 11 -11 14 -25 11 -12 -3 -17 -3 -10 0 7 3 10 11 7
18 -3 7 2 19 11 26 8 7 15 22 15 33 0 20 1 20 17 -3 9 -14 24 -30 31 -36z
m-426 11 c0 -19 1 -40 2 -47 1 -6 -5 -13 -11 -15 -9 -3 -13 10 -13 46 0 57 19
71 22 16z m-1044 -7 c29 -29 3 -72 -36 -61 -35 9 -24 73 13 73 6 0 16 -5 23
-12z m90 0 c13 -13 16 -56 6 -82 -8 -20 -48 -21 -64 -1 -11 13 -8 14 19 9 21
-5 31 -3 31 6 0 7 -7 10 -15 6 -14 -5 -45 18 -45 34 0 13 30 40 44 40 6 0 17
-5 24 -12z m160 -33 c-1 -38 -1 -38 -5 -7 -5 40 -33 41 -44 2 -6 -21 -7 -20
-8 12 -1 35 1 37 29 35 28 -2 30 -4 28 -42z m843 26 c-11 -7 -10 -11 4 -19 22
-12 11 -32 -18 -31 -20 0 -20 1 -4 8 17 6 17 8 3 20 -22 19 -20 31 7 31 16 0
18 -3 8 -9z m-1966 -340 c-6 -5 -25 10 -25 20 0 5 6 4 14 -3 8 -7 12 -15 11
-17z m31 -78 c-10 -10 -46 -11 -46 -1 0 4 12 8 27 8 14 0 23 -3 19 -7z m-24
-68 c0 -5 -5 -11 -11 -13 -6 -2 -11 4 -11 13 0 9 5 15 11 13 6 -2 11 -8 11
-13z m95 -42 c-3 -10 -5 -2 -5 17 0 19 2 27 5 18 2 -10 2 -26 0 -35z m-97 -23
c0 -5 -4 -10 -10 -10 -5 0 -10 5 -10 10 0 6 5 10 10 10 6 0 10 -4 10 -10z
m833 -41 c7 -1 21 -2 32 -3 15 -1 20 -9 22 -31 1 -20 0 -23 -4 -7 -2 12 -8 22
-13 22 -4 0 -11 -10 -15 -22 l-8 -23 -4 23 c-2 12 -9 22 -14 22 -5 0 -10 -10
-10 -22 -1 -18 -3 -16 -8 7 -4 17 -4 41 -2 55 5 24 6 24 9 3 2 -13 9 -23 15
-24z m1241 -4 c13 0 22 -10 27 -27 4 -16 3 -28 -2 -28 -5 0 -9 9 -9 20 0 13
-7 20 -20 20 -13 0 -20 -7 -20 -20 0 -11 -4 -20 -10 -20 -12 0 -14 83 -2 94 4
4 9 -3 12 -16 3 -14 12 -23 24 -23z m-1350 -6 c4 -23 4 -44 1 -47 -8 -9 -12 1
-18 46 -7 54 8 55 17 1z m1241 1 c-1 -56 -12 -60 -17 -6 -2 28 1 46 7 46 6 0
11 -18 10 -40z m-1038 -11 c-10 -16 -9 -21 3 -29 13 -8 13 -10 -1 -10 -11 0
-18 10 -21 28 -6 41 0 56 18 42 10 -9 11 -16 1 -31z m1394 20 c26 -26 22 -63
-8 -67 -13 -2 -23 2 -23 8 0 8 -9 11 -23 8 -15 -3 -24 0 -24 8 0 7 5 12 10 11
6 -1 17 10 24 26 17 32 17 33 44 6z m-1526 -9 c11 -18 -6 -50 -25 -50 -24 0
-33 15 -25 40 7 21 39 27 50 10z m1223 -19 c4 -23 -15 -44 -30 -35 -14 9 -8
24 7 18 8 -4 15 -2 15 4 0 5 -7 12 -15 16 -21 8 -19 28 3 24 9 -2 19 -14 20
-27z m165 7 c-5 -22 -5 -22 9 -4 15 18 15 18 14 -12 -1 -31 -1 -31 -20 -13
-11 11 -16 26 -13 35 9 24 16 19 10 -6z m-116 -30 c-3 -8 -6 -5 -6 6 -1 11 2
17 5 13 3 -3 4 -12 1 -19z m-1232 -139 c11 -16 1 -19 -13 -3 -7 8 -8 14 -3 14
5 0 13 -5 16 -11z m-498 -5 c-3 -3 -12 -4 -19 -1 -8 3 -5 6 6 6 11 1 17 -2 13
-5z m1400 -26 c-3 -8 -6 -5 -6 6 -1 11 2 17 5 13 3 -3 4 -12 1 -19z m-1350
-105 c-2 -21 -4 -6 -4 32 0 39 2 55 4 38 2 -18 2 -50 0 -70z m1497 -222 c15
-24 -37 -28 -366 -29 -335 0 -386 4 -347 29 18 11 706 12 713 0z m-1324 -99
c3 -3 -4 0 -15 6 -11 6 -36 27 -55 48 -33 36 -33 36 15 -6 28 -24 52 -46 55
-48z m2010 85 c0 -2 -17 -19 -37 -38 l-38 -34 34 38 c33 34 41 42 41 34z
m-1857 -134 c-7 -2 -19 -2 -25 0 -7 3 -2 5 12 5 14 0 19 -2 13 -5z m1630 0
c-7 -2 -21 -2 -30 0 -10 3 -4 5 12 5 17 0 24 -2 18 -5z m-310 -10 c-40 -2
-106 -2 -145 0 -40 1 -8 3 72 3 80 0 112 -2 73 -3z"/>
<path d="M5042 7403 c4 -21 33 -25 33 -3 0 8 -8 16 -18 18 -14 3 -18 -1 -15
-15z"/>
<path d="M5180 7360 c0 -11 7 -20 15 -20 8 0 15 9 15 20 0 11 -7 20 -15 20 -8
0 -15 -9 -15 -20z"/>
<path d="M5338 7373 c7 -3 16 -2 19 1 4 3 -2 6 -13 5 -11 0 -14 -3 -6 -6z"/>
<path d="M5760 7380 c0 -5 5 -10 10 -10 6 0 10 5 10 10 0 6 -4 10 -10 10 -5 0
-10 -4 -10 -10z"/>
<path d="M5375 6850 c3 -5 8 -10 11 -10 2 0 4 5 4 10 0 6 -5 10 -11 10 -5 0
-7 -4 -4 -10z"/>
<path d="M5442 6830 c0 -14 2 -19 5 -12 2 6 2 18 0 25 -3 6 -5 1 -5 -13z"/>
<path d="M6280 6840 c0 -11 5 -20 10 -20 6 0 10 9 10 20 0 11 -4 20 -10 20 -5
0 -10 -9 -10 -20z"/>
<path d="M4720 6835 c0 -14 5 -25 10 -25 6 0 10 11 10 25 0 14 -4 25 -10 25
-5 0 -10 -11 -10 -25z"/>
<path d="M4660 6196 c0 -38 10 -49 35 -40 26 10 16 68 -12 72 -20 3 -23 -1
-23 -32z"/>
<path d="M5860 6194 c0 -8 5 -12 10 -9 6 4 8 11 5 16 -9 14 -15 11 -15 -7z"/>
<path d="M4670 5585 c0 -28 4 -35 19 -35 22 0 32 30 19 54 -16 29 -38 19 -38
-19z"/>
<path d="M5860 5590 c0 -5 5 -10 10 -10 6 0 10 5 10 10 0 6 -4 10 -10 10 -5 0
-10 -4 -10 -10z"/>
<path d="M4676 4985 c-3 -9 0 -15 9 -15 16 0 20 16 6 24 -5 3 -11 -1 -15 -9z"/>
<path d="M5865 4990 c-8 -13 -1 -24 14 -19 6 3 7 10 2 18 -6 10 -10 10 -16 1z"/>
<path d="M5110 4960 c0 -11 7 -20 15 -20 8 0 15 9 15 20 0 11 -7 20 -15 20 -8
0 -15 -9 -15 -20z"/>
<path d="M5107 4363 c-13 -12 -7 -33 8 -33 8 0 15 9 15 20 0 20 -11 26 -23 13z"/>
<path d="M5994 4359 c-3 -6 0 -15 7 -20 22 -14 28 -11 22 11 -6 22 -18 26 -29
9z"/>
<path d="M4776 4373 c-12 -12 -6 -43 9 -43 8 0 15 9 15 19 0 21 -13 34 -24 24z"/>
<path d="M4852 4353 c2 -10 10 -18 18 -18 8 0 16 8 18 18 2 12 -3 17 -18 17
-15 0 -20 -5 -18 -17z"/>
<path d="M4706 3763 c-11 -11 -6 -23 9 -23 8 0 15 4 15 9 0 13 -16 22 -24 14z"/>
<path d="M1191 7754 c0 -11 3 -14 6 -6 3 7 2 16 -1 19 -3 4 -6 -2 -5 -13z"/>
<path d="M3318 7724 c-11 -10 3 -34 19 -34 8 0 13 7 11 17 -3 18 -20 27 -30
17z"/>
<path d="M3312 7659 c-12 -18 -11 -24 2 -37 15 -15 16 -14 16 12 0 21 4 27 15
22 9 -3 15 0 15 9 0 22 -33 18 -48 -6z"/>
<path d="M3095 7560 c3 -5 8 -10 11 -10 2 0 4 5 4 10 0 6 -5 10 -11 10 -5 0
-7 -4 -4 -10z"/>
<path d="M3050 7532 c-14 -13 -19 -22 -12 -18 8 5 12 -2 12 -23 0 -16 4 -32 9
-36 5 -3 9 10 8 30 -1 19 -6 35 -12 35 -5 0 -3 5 5 10 10 6 17 5 23 -5 4 -8
13 -15 20 -15 8 0 9 3 1 8 -6 4 -15 14 -20 23 -8 14 -12 13 -34 -9z"/>
<path d="M3006 7491 c-3 -5 1 -14 9 -21 11 -9 14 -8 12 9 -1 22 -12 28 -21 12z"/>
<path d="M2956 7451 c-13 -14 -14 -21 -6 -26 9 -6 9 -10 -1 -17 -11 -8 -11 -9
1 -5 8 2 15 14 15 27 0 13 6 25 14 28 8 3 11 0 7 -6 -9 -15 23 -24 42 -12 14
9 13 10 -5 5 -17 -5 -23 -2 -23 9 0 22 -23 20 -44 -3z"/>
<path d="M2860 7380 c-26 -22 -30 -29 -17 -30 9 0 16 3 16 8 -3 20 3 23 18 11
12 -10 14 -10 9 -1 -4 7 -1 15 8 18 16 6 22 24 8 24 -4 0 -23 -13 -42 -30z"/>
<path d="M3000 7400 c-9 -6 -10 -10 -3 -10 6 0 15 5 18 10 8 12 4 12 -15 0z"/>
<path d="M2926 7378 c5 -7 2 -9 -8 -6 -9 4 -15 0 -15 -8 0 -18 15 -18 32 0 12
12 12 15 -1 20 -10 4 -13 2 -8 -6z"/>
<path d="M2797 7335 c-4 -8 -29 -27 -57 -43 -37 -21 -47 -31 -36 -35 9 -4 16
-2 16 3 0 6 8 10 18 10 21 0 83 40 62 40 -12 1 -11 3 3 14 10 8 14 17 9 20 -6
3 -12 -1 -15 -9z m-7 -30 c0 -2 -10 -9 -22 -15 -22 -11 -22 -10 -4 4 21 17 26
19 26 11z"/>
<path d="M2825 7320 c-3 -5 -2 -10 4 -10 5 0 13 5 16 10 3 6 2 10 -4 10 -5 0
-13 -4 -16 -10z"/>
<path d="M3255 7204 c-33 -19 -144 -78 -247 -131 -104 -52 -188 -99 -188 -104
0 -9 24 -6 190 22 173 29 281 55 290 69 4 7 13 40 20 74 6 34 14 71 17 84 7
30 -10 28 -82 -14z"/>
<path d="M2425 7090 c-3 -5 -1 -10 4 -10 6 0 11 5 11 10 0 6 -2 10 -4 10 -3 0
-8 -4 -11 -10z"/>
<path d="M9662 6475 c-82 -332 -196 -925 -180 -941 3 -2 16 0 30 5 l24 9 -62
-306 c-34 -169 -70 -356 -80 -415 -13 -74 -21 -102 -26 -88 -8 23 -73 351 -83
423 l-7 47 33 -9 c18 -5 34 -8 35 -7 2 1 -8 59 -22 127 -14 69 -36 184 -49
255 -13 72 -31 162 -39 200 -8 39 -20 104 -27 145 l-13 75 -6 -50 c-5 -50 -6
-50 -19 40 -7 50 -23 152 -35 229 l-21 138 -28 -193 c-44 -300 -102 -633 -152
-869 -25 -118 -45 -216 -45 -217 0 -1 16 7 35 18 19 12 35 18 35 15 0 -3 -20
-54 -44 -113 -47 -117 -94 -240 -177 -458 l-53 -139 -17 119 c-10 66 -15 123
-13 127 3 4 0 8 -5 8 -6 0 -11 7 -11 17 0 15 1 15 18 0 10 -10 29 -17 42 -17
19 0 21 2 10 15 -7 9 -10 19 -6 22 4 4 11 1 16 -7 7 -12 11 -10 19 10 5 14 10
20 10 13 1 -18 -21 -63 -31 -63 -4 0 -8 -5 -8 -11 0 -8 4 -8 13 0 10 8 17 7
26 -2 10 -10 12 -7 10 13 -1 14 1 45 5 70 4 25 11 91 14 147 6 81 4 103 -7
110 -11 7 -12 23 -2 93 22 156 51 413 47 417 -2 2 -11 -18 -20 -44 -10 -27
-22 -57 -27 -68 -5 -11 -22 -56 -38 -100 -16 -44 -48 -125 -70 -180 -23 -55
-39 -105 -36 -113 2 -7 1 -11 -4 -8 -12 8 -38 -98 -33 -134 3 -20 12 -34 22
-37 12 -3 20 -19 25 -50 3 -25 4 -47 2 -50 -3 -3 -9 16 -12 41 -4 25 -11 44
-15 41 -5 -3 -10 0 -12 6 -2 6 -2 -22 0 -62 2 -41 0 -69 -5 -64 -13 16 -71 55
-82 55 -5 0 -16 6 -23 14 -8 7 -34 24 -59 36 -24 13 -48 28 -52 34 -5 6 -6 3
-2 -9 6 -20 58 -274 70 -349 5 -29 9 -36 16 -25 7 11 9 11 9 -3 0 -10 7 -18
16 -18 8 0 12 5 9 10 -3 6 1 10 9 10 9 0 16 7 16 15 0 8 5 15 10 15 6 0 10 -7
10 -15 0 -8 -4 -15 -10 -15 -5 0 -10 -4 -10 -10 0 -22 29 -8 38 18 10 26 10
25 11 -15 1 -43 -19 -230 -45 -423 -16 -114 -28 -155 -43 -146 -4 3 -38 90
-75 193 -37 103 -71 195 -75 203 -9 20 -2 52 10 44 6 -4 6 -11 -1 -19 -8 -9
-8 -15 0 -20 5 -3 10 -1 10 5 0 6 4 8 10 5 6 -4 6 3 0 21 -13 33 -1 49 40 57
l30 6 -19 44 c-11 25 -51 141 -89 258 -39 118 -74 223 -78 233 -5 12 -4 17 3
13 6 -4 9 3 7 16 -2 12 -13 85 -25 162 -11 77 -45 274 -75 437 -29 164 -56
327 -60 363 -4 37 -10 62 -14 58 -4 -4 -31 -114 -60 -243 -83 -372 -170 -710
-206 -805 -6 -15 5 -10 44 19 29 21 52 35 52 31 0 -9 -109 -420 -116 -440 -5
-11 -2 -13 11 -8 16 5 17 2 11 -23 -14 -60 -90 -294 -94 -290 -2 3 -10 44 -17
93 -8 48 -27 169 -44 268 -17 99 -38 235 -47 303 -17 122 -25 134 -38 57 -4
-22 -27 -122 -52 -221 -24 -100 -44 -184 -44 -187 0 -3 16 -3 35 0 l36 6 -31
-84 c-38 -105 -39 -122 -4 -113 l25 6 -6 -63 c-4 -35 -8 -69 -10 -75 -2 -6 7
-62 20 -125 12 -63 28 -179 34 -259 8 -106 18 -166 37 -224 27 -80 134 -300
159 -325 10 -10 63 -16 197 -22 359 -16 1063 -29 1661 -29 l607 0 -1 1207 c-1
665 -5 1195 -9 1178 -5 -16 -32 -118 -60 -225 -28 -107 -54 -198 -56 -202 -8
-13 25 -9 56 7 17 9 30 14 30 12 0 -2 -29 -91 -65 -197 -36 -106 -63 -195 -61
-198 3 -3 17 3 31 12 25 17 26 17 17 -1 -5 -10 -29 -75 -52 -145 -23 -71 -45
-128 -49 -128 -8 0 -151 346 -151 367 0 2 36 -21 81 -51 44 -31 83 -56 86 -56
10 0 -5 70 -90 407 -87 341 -93 368 -79 347 8 -13 83 -47 89 -41 2 2 -15 91
-37 198 -22 107 -49 239 -60 294 -10 55 -30 156 -45 225 -27 131 -69 379 -83
490 l-8 65 -62 -250z m-915 -1427 c-3 -8 -6 -5 -6 6 -1 11 2 17 5 13 3 -3 4
-12 1 -19z m-82 -238 c3 -5 1 -10 -4 -10 -6 0 -11 5 -11 10 0 6 2 10 4 10 3 0
8 -4 11 -10z m70 -90 c-3 -5 -12 -7 -20 -3 -21 7 -19 13 6 13 11 0 18 -4 14
-10z m-58 -26 c-3 -3 -12 -4 -19 -1 -8 3 -5 6 6 6 11 1 17 -2 13 -5z m-90
-136 c-2 -13 -4 -5 -4 17 -1 22 1 32 4 23 2 -10 2 -28 0 -40z m-10 -90 c-2
-13 -4 -5 -4 17 -1 22 1 32 4 23 2 -10 2 -28 0 -40z m168 -154 c-14 -31 -25
-59 -26 -63 -2 -13 -17 45 -18 71 -1 20 5 29 27 36 43 16 43 15 17 -44z m-431
5 c20 3 26 -1 26 -14 0 -8 -6 -14 -12 -12 -15 2 -37 28 -38 42 0 6 4 4 9 -3 4
-8 11 -13 15 -13z"/>
<path d="M2990 6688 c-57 -39 -63 -128 -11 -169 38 -30 102 -22 144 19 27 26
45 32 110 41 72 10 143 37 192 74 17 13 10 13 -55 1 -41 -7 -110 -13 -152 -13
-67 -1 -79 2 -88 19 -12 23 -60 50 -88 50 -10 0 -34 -10 -52 -22z"/>
<path d="M2022 6459 c-34 -53 -38 -64 -23 -54 12 7 63 97 58 102 -2 2 -18 -20
-35 -48z"/>
<path d="M2056 6465 c-3 -8 -1 -15 4 -15 6 0 10 7 10 15 0 8 -2 15 -4 15 -2 0
-6 -7 -10 -15z"/>
<path d="M2032 6420 c-7 -11 -8 -20 -3 -20 9 0 24 30 18 36 -1 2 -8 -6 -15
-16z"/>
<path d="M1445 6360 c-3 -5 -1 -10 4 -10 6 0 11 5 11 10 0 6 -2 10 -4 10 -3 0
-8 -4 -11 -10z"/>
<path d="M1984 6323 c3 -6 2 -14 -4 -18 -5 -3 -10 -11 -10 -18 0 -6 7 -4 17 6
14 14 15 19 4 29 -9 9 -12 9 -7 1z"/>
<path d="M1980 6159 c0 -5 5 -7 10 -4 6 3 10 8 10 11 0 2 -4 4 -10 4 -5 0 -10
-5 -10 -11z"/>
<path d="M1945 6080 c-3 -5 -2 -10 4 -10 5 0 13 5 16 10 3 6 2 10 -4 10 -5 0
-13 -4 -16 -10z"/>
<path d="M1875 5889 c-4 -6 -5 -13 -2 -16 7 -7 27 6 27 18 0 12 -17 12 -25 -2z"/>
<path d="M1840 5786 c0 -15 24 -28 34 -19 13 14 5 33 -14 33 -11 0 -20 -6 -20
-14z"/>
<path d="M4260 5750 c0 -5 5 -10 10 -10 6 0 10 5 10 10 0 6 -4 10 -10 10 -5 0
-10 -4 -10 -10z"/>
<path d="M4216 5700 c3 -14 11 -32 16 -40 6 -10 7 -7 2 10 -3 14 -11 32 -16
40 -6 10 -7 7 -2 -10z"/>
<path d="M1840 5640 c0 -5 7 -10 15 -10 8 0 15 5 15 10 0 6 -7 10 -15 10 -8 0
-15 -4 -15 -10z"/>
<path d="M4250 5574 c12 -137 -44 -216 -185 -262 l-30 -10 38 -1 c49 -1 177
28 177 40 0 5 5 9 11 9 5 0 7 -5 4 -11 -5 -7 0 -6 11 1 16 10 19 25 19 108 0
54 -4 103 -9 111 -5 8 -4 16 4 21 9 5 8 9 -4 13 -9 4 -16 -1 -19 -11 -3 -9 -5
0 -6 21 0 20 -4 37 -9 37 -4 0 -5 -30 -2 -66z"/>
<path d="M1810 5340 c0 -5 5 -10 10 -10 6 0 10 5 10 10 0 6 -4 10 -10 10 -5 0
-10 -4 -10 -10z"/>
<path d="M1792 5266 c7 -8 16 -12 21 -9 11 7 -2 23 -19 23 -12 0 -12 -2 -2
-14z"/>
<path d="M1777 5243 c-7 -10 29 -50 37 -42 3 2 -3 15 -13 28 -10 13 -21 19
-24 14z"/>
<path d="M8369 5218 c-9 -45 -9 -88 0 -88 6 0 11 -10 11 -23 0 -16 6 -23 20
-24 18 -2 19 0 5 14 -9 9 -14 22 -11 29 3 7 1 16 -4 19 -14 9 -12 52 2 61 6 4
8 3 4 -4 -3 -6 -2 -13 4 -17 5 -3 10 -17 10 -30 0 -13 3 -25 8 -28 4 -2 1 -2
-5 -1 -7 2 -13 -1 -13 -6 0 -6 19 -10 43 -10 39 -1 41 -2 23 -15 -20 -15 -20
-15 0 -15 18 0 50 -48 39 -58 -3 -3 -5 1 -5 8 0 9 -5 8 -13 -5 -9 -11 -19 -15
-27 -10 -11 7 -9 10 6 16 17 7 18 8 1 8 -21 1 -53 -27 -42 -37 7 -7 11 -8 38
-11 8 0 22 -19 32 -41 19 -41 29 -49 39 -27 4 8 8 9 11 1 3 -6 12 -20 21 -30
13 -17 13 -16 2 11 -14 34 -26 45 -43 39 -7 -3 -11 9 -12 33 0 36 0 37 9 11 5
-16 14 -28 19 -28 5 0 2 15 -5 33 -8 17 -24 57 -36 87 -39 99 -45 110 -57 110
-7 0 -13 -5 -13 -11 0 -5 -4 -7 -10 -4 -17 10 -11 25 10 25 11 0 20 5 20 10 0
8 -79 16 -81 8z m81 -74 c0 -8 -4 -12 -10 -9 -5 3 -10 10 -10 16 0 5 5 9 10 9
6 0 10 -7 10 -16z"/>
<path d="M8339 5015 c-8 -58 -13 -105 -11 -105 7 0 22 54 26 97 2 26 7 60 11
74 4 15 2 29 -3 33 -5 3 -15 -41 -23 -99z"/>
<path d="M8374 5033 c-4 -19 -2 -39 3 -44 7 -7 13 2 17 26 7 36 8 37 50 33 26
-2 42 1 40 7 -3 6 -27 10 -54 11 -49 1 -50 0 -56 -33z"/>
<path d="M8360 4963 c0 -13 5 -23 10 -23 13 0 13 11 0 30 -8 12 -10 11 -10 -7z"/>
<path d="M8394 4969 c-3 -6 -1 -16 5 -22 8 -8 11 -8 11 1 0 7 7 12 16 12 8 0
12 5 9 10 -8 13 -32 13 -41 -1z"/>
<path d="M8456 4944 c-18 -18 -20 -24 -6 -24 5 0 14 9 20 20 13 24 7 26 -14 4z"/>
<path d="M1836 4917 c3 -10 9 -15 12 -12 3 3 0 11 -7 18 -10 9 -11 8 -5 -6z"/>
<path d="M8481 4920 c-1 -21 16 -46 26 -37 4 5 3 11 -3 15 -6 4 -14 14 -17 22
-5 13 -5 13 -6 0z"/>
<path d="M8462 4881 c-8 -5 5 -14 39 -24 28 -9 55 -14 60 -11 12 7 -8 44 -24
43 -9 0 -9 -2 1 -6 6 -2 12 -9 12 -15 0 -13 -61 -2 -70 12 -3 5 -11 5 -18 1z"/>
<path d="M1826 4861 c-3 -5 1 -11 9 -14 9 -4 12 -1 8 9 -6 16 -10 17 -17 5z"/>
<path d="M3896 4834 c-5 -10 -10 -57 -12 -104 -2 -61 0 -77 6 -56 5 16 7 33 4
38 -3 4 -1 8 5 8 6 0 8 13 5 33 -4 24 -3 28 5 17 9 -12 11 -9 10 15 0 17 -4
39 -8 49 -7 19 -8 19 -15 0z"/>
<path d="M8397 4816 c-4 -10 -1 -13 8 -9 8 3 12 9 9 14 -7 12 -11 11 -17 -5z"/>
<path d="M8490 4820 c0 -5 4 -10 9 -10 6 0 13 5 16 10 3 6 -1 10 -9 10 -9 0
-16 -4 -16 -10z"/>
<path d="M8567 4789 c4 -13 8 -18 11 -10 2 7 -1 18 -6 23 -8 8 -9 4 -5 -13z"/>
<path d="M1850 4780 c0 -5 5 -10 10 -10 6 0 10 5 10 10 0 6 -4 10 -10 10 -5 0
-10 -4 -10 -10z"/>
<path d="M8576 4738 c-3 -13 -2 -26 3 -31 4 -4 8 6 9 23 1 36 -3 39 -12 8z"/>
<path d="M6633 4678 c-5 -7 -9 -26 -7 -43 3 -43 5 -44 14 -10 l8 30 1 -30 c1
-16 9 -39 18 -50 l16 -20 -8 20 c-4 11 -11 40 -16 64 -11 52 -13 56 -26 39z"/>
<path d="M2687 4611 c-25 -36 -29 -46 -12 -27 30 33 48 27 19 -6 -19 -23 -19
-23 2 -5 28 23 31 22 39 -14 4 -17 9 -28 12 -25 8 7 -17 76 -28 76 -13 0 -11
28 3 32 6 2 9 9 7 15 -2 6 -21 -15 -42 -46z"/>
<path d="M3914 4643 c-4 -15 -8 -35 -9 -44 -1 -9 -5 -21 -9 -28 -4 -6 -3 -11
2 -11 6 0 15 23 22 51 13 53 8 80 -6 32z"/>
<path d="M1881 4639 c17 -11 39 -12 39 -1 0 4 -12 8 -27 9 -19 1 -22 -1 -12
-8z"/>
<path d="M8670 4595 c8 -53 11 -57 30 -45 13 8 12 10 -2 10 -14 0 -18 9 -18
40 0 22 -4 40 -8 40 -5 0 -6 -20 -2 -45z"/>
<path d="M3872 4590 c0 -14 2 -19 5 -12 2 6 2 18 0 25 -3 6 -5 1 -5 -13z"/>
<path d="M8725 4599 c-9 -14 -2 -20 14 -10 8 6 9 11 3 15 -6 3 -14 1 -17 -5z"/>
<path d="M6631 4580 c-1 -23 15 -45 23 -31 4 6 3 11 -3 11 -5 0 -12 8 -14 18
-3 12 -5 13 -6 2z"/>
<path d="M1900 4560 c18 -12 30 -13 30 -2 0 4 -10 9 -22 9 -18 2 -20 0 -8 -7z"/>
<path d="M2612 4519 c-13 -16 -20 -29 -16 -29 9 0 44 41 44 52 0 12 -3 10 -28
-23z"/>
<path d="M3910 4525 c0 -5 5 -17 10 -25 5 -8 10 -10 10 -5 0 6 -5 17 -10 25
-5 8 -10 11 -10 5z"/>
<path d="M8680 4521 c0 -5 5 -13 10 -16 6 -3 10 -2 10 4 0 5 -4 13 -10 16 -5
3 -10 2 -10 -4z"/>
<path d="M2735 4490 c-3 -5 -1 -10 4 -10 6 0 11 5 11 10 0 6 -2 10 -4 10 -3 0
-8 -4 -11 -10z"/>
<path d="M3932 4460 c0 -14 2 -19 5 -12 2 6 2 18 0 25 -3 6 -5 1 -5 -13z"/>
<path d="M2731 4444 c0 -11 3 -14 6 -6 3 7 2 16 -1 19 -3 4 -6 -2 -5 -13z"/>
<path d="M3381 4444 c0 -11 3 -14 6 -6 3 7 2 16 -1 19 -3 4 -6 -2 -5 -13z"/>
<path d="M2761 4434 c0 -11 3 -14 6 -6 3 7 2 16 -1 19 -3 4 -6 -2 -5 -13z"/>
<path d="M3960 4381 c0 -10 28 -41 36 -41 2 0 -3 11 -12 25 -17 26 -24 31 -24
16z"/>
<path d="M8450 4380 c0 -6 4 -10 10 -10 5 0 7 -8 4 -17 -5 -15 -4 -16 5 -3 14
20 14 27 -4 34 -8 3 -15 1 -15 -4z"/>
<path d="M3422 4360 c0 -14 2 -19 5 -12 2 6 2 18 0 25 -3 6 -5 1 -5 -13z"/>
<path d="M8540 4371 c0 -6 5 -13 10 -16 6 -3 10 1 10 9 0 9 -4 16 -10 16 -5 0
-10 -4 -10 -9z"/>
<path d="M897 4359 c7 -7 15 -10 18 -7 3 3 -2 9 -12 12 -14 6 -15 5 -6 -5z"/>
<path d="M8495 4360 c-3 -5 -1 -10 4 -10 6 0 11 5 11 10 0 6 -2 10 -4 10 -3 0
-8 -4 -11 -10z"/>
<path d="M1904 4339 c-3 -6 -1 -16 5 -22 8 -8 11 -5 11 11 0 24 -5 28 -16 11z"/>
<path d="M6566 4324 c-10 -37 -2 -39 11 -4 6 17 8 30 3 30 -4 0 -11 -12 -14
-26z"/>
<path d="M3996 4322 c-3 -5 1 -9 9 -9 8 0 12 4 9 9 -3 4 -7 8 -9 8 -2 0 -6 -4
-9 -8z"/>
<path d="M8456 4313 c-6 -14 -5 -15 5 -6 7 7 10 15 7 18 -3 3 -9 -2 -12 -12z"/>
<path d="M3441 4274 c0 -11 3 -14 6 -6 3 7 2 16 -1 19 -3 4 -6 -2 -5 -13z"/>
<path d="M1930 4270 c0 -5 5 -10 10 -10 6 0 10 5 10 10 0 6 -4 10 -10 10 -5 0
-10 -4 -10 -10z"/>
<path d="M1982 4240 c0 -14 2 -19 5 -12 2 6 2 18 0 25 -3 6 -5 1 -5 -13z"/>
<path d="M3452 4210 c0 -19 2 -27 5 -17 2 9 2 25 0 35 -3 9 -5 1 -5 -18z"/>
<path d="M6537 4217 c-3 -12 -2 -40 2 -62 7 -33 9 -37 16 -20 4 11 10 24 13
29 3 5 0 6 -5 3 -6 -4 -14 0 -17 9 -9 23 -7 36 4 29 6 -3 10 1 10 9 0 25 -17
27 -23 3z"/>
<path d="M3982 4165 c0 -16 2 -22 5 -12 2 9 2 23 0 30 -3 6 -5 -1 -5 -18z"/>
<path d="M2043 4150 c-13 -5 -23 -11 -23 -14 0 -7 40 6 46 15 6 10 6 10 -23
-1z"/>
<path d="M3361 4094 c0 -11 3 -14 6 -6 3 7 2 16 -1 19 -3 4 -6 -2 -5 -13z"/>
<path d="M8396 4075 c4 -8 10 -15 15 -15 5 0 9 7 9 15 0 8 -7 15 -15 15 -9 0
-12 -6 -9 -15z"/>
<path d="M6522 4048 c-3 -37 2 -35 12 5 3 15 3 27 -2 27 -4 0 -9 -14 -10 -32z"/>
<path d="M8427 4059 c-3 -12 -2 -31 2 -43 5 -11 6 -27 3 -35 -3 -8 0 -11 6 -7
6 4 8 21 5 41 -4 22 -2 35 5 35 6 0 9 7 6 15 -9 21 -21 19 -27 -6z"/>
<path d="M8484 4030 c0 -20 7 -25 19 -14 7 7 -2 34 -12 34 -4 0 -7 -9 -7 -20z"/>
<path d="M3486 4024 c-3 -8 1 -27 9 -42 10 -19 14 -22 15 -10 0 9 -5 20 -10
23 -6 4 -8 15 -5 26 8 23 0 26 -9 3z"/>
<path d="M1700 4020 c0 -5 5 -10 11 -10 5 0 7 5 4 10 -3 6 -8 10 -11 10 -2 0
-4 -4 -4 -10z"/>
<path d="M8461 4010 c-1 -14 -4 -36 -6 -50 l-6 -25 11 25 c6 13 9 36 7 50 l-4
25 -2 -25z"/>
<path d="M1648 4013 c7 -3 16 -2 19 1 4 3 -2 6 -13 5 -11 0 -14 -3 -6 -6z"/>
<path d="M2011 3994 c0 -11 3 -14 6 -6 3 7 2 16 -1 19 -3 4 -6 -2 -5 -13z"/>
<path d="M6520 3992 c0 -5 7 -9 15 -9 8 0 15 4 15 9 0 4 -7 8 -15 8 -8 0 -15
-4 -15 -8z"/>
<path d="M8471 3948 c-6 -17 -11 -32 -11 -33 0 -1 7 -2 16 -2 11 0 14 7 10 23
-4 13 -1 24 6 26 9 3 9 6 1 11 -7 4 -15 -6 -22 -25z"/>
<path d="M2020 3955 c0 -8 5 -15 10 -15 6 0 10 7 10 15 0 8 -4 15 -10 15 -5 0
-10 -7 -10 -15z"/>
<path d="M3505 3941 c-3 -5 -1 -12 5 -16 5 -3 10 1 10 9 0 18 -6 21 -15 7z"/>
<path d="M3063 3805 c0 -22 2 -30 4 -17 2 12 2 30 0 40 -3 9 -5 -1 -4 -23z"/>
<path d="M3511 3824 c0 -11 3 -14 6 -6 3 7 2 16 -1 19 -3 4 -6 -2 -5 -13z"/>
<path d="M3540 3766 c0 -31 4 -55 8 -52 8 5 5 96 -3 105 -3 2 -5 -21 -5 -53z"/>
<path d="M3062 3740 c0 -14 2 -19 5 -12 2 6 2 18 0 25 -3 6 -5 1 -5 -13z"/>
<path d="M3060 3656 c0 -30 4 -45 10 -41 11 7 8 70 -3 82 -4 3 -7 -15 -7 -41z"/>
<path d="M3550 3670 c-6 -11 -8 -20 -6 -20 3 0 10 9 16 20 6 11 8 20 6 20 -3
0 -10 -9 -16 -20z"/>
<path d="M3970 3679 c0 -5 5 -7 10 -4 6 3 10 8 10 11 0 2 -4 4 -10 4 -5 0 -10
-5 -10 -11z"/>
<path d="M3338 3673 c7 -3 16 -2 19 1 4 3 -2 6 -13 5 -11 0 -14 -3 -6 -6z"/>
<path d="M3420 3660 c0 -5 5 -10 11 -10 5 0 7 5 4 10 -3 6 -8 10 -11 10 -2 0
-4 -4 -4 -10z"/>
<path d="M3091 3634 c0 -11 3 -14 6 -6 3 7 2 16 -1 19 -3 4 -6 -2 -5 -13z"/>
<path d="M3202 3620 c0 -14 2 -19 5 -12 2 6 2 18 0 25 -3 6 -5 1 -5 -13z"/>
<path d="M4015 3630 c3 -5 8 -10 11 -10 2 0 4 5 4 10 0 6 -5 10 -11 10 -5 0
-7 -4 -4 -10z"/>
<path d="M4037 3620 c-3 -11 -1 -20 4 -20 5 0 9 9 9 20 0 11 -2 20 -4 20 -2 0
-6 -9 -9 -20z"/>
<path d="M4166 3625 c-22 -17 -17 -29 8 -19 9 3 16 12 16 20 0 17 0 17 -24 -1z"/>
<path d="M2600 3609 c0 -21 30 -33 44 -18 8 9 8 10 -2 4 -8 -4 -19 0 -27 11
-13 17 -14 17 -15 3z"/>
<path d="M3986 3603 c-6 -14 -5 -15 5 -6 7 7 10 15 7 18 -3 3 -9 -2 -12 -12z"/>
<path d="M3060 3585 c0 -8 2 -15 4 -15 2 0 6 7 10 15 3 8 1 15 -4 15 -6 0 -10
-7 -10 -15z"/>
<path d="M3140 3560 c0 -5 4 -10 9 -10 6 0 13 5 16 10 3 6 -1 10 -9 10 -9 0
-16 -4 -16 -10z"/>
<path d="M3072 3490 c0 -19 2 -27 5 -17 2 9 2 25 0 35 -3 9 -5 1 -5 -18z"/>
<path d="M3070 3423 c0 -4 5 -15 10 -23 8 -13 10 -13 10 2 0 9 -4 20 -10 23
-5 3 -10 3 -10 -2z"/>
<path d="M6430 3110 c-8 -5 -12 -12 -9 -15 4 -3 12 1 19 10 14 17 11 19 -10 5z"/>
<path d="M6280 3050 c11 -7 1 -8 -34 -3 l-48 6 7 -33 c5 -23 4 -30 -4 -26 -6
4 -11 13 -11 21 0 8 -4 17 -10 20 -16 10 8 -45 34 -75 17 -21 27 -25 39 -18
11 6 24 4 41 -7 16 -11 26 -13 31 -6 3 6 1 11 -5 11 -6 0 -9 4 -6 8 3 4 -14 7
-38 7 -44 -2 -46 0 -47 52 -1 14 -5 20 -13 16 -6 -3 -7 -2 -3 2 4 5 14 10 22
11 12 2 13 -2 4 -18 -8 -14 -8 -23 0 -31 8 -8 11 -4 11 16 0 31 7 33 38 11 13
-9 26 -13 30 -9 4 4 1 10 -5 12 -19 7 -16 23 4 23 23 0 14 6 -22 14 -22 5 -26
4 -15 -4z m-56 -76 c3 -8 2 -12 -4 -9 -6 3 -10 10 -10 16 0 14 7 11 14 -7z"/>
<path d="M6296 2899 c18 -19 23 -29 13 -29 -8 0 -23 11 -33 25 -10 14 -23 25
-28 25 -9 0 133 -176 159 -197 8 -6 15 -15 15 -20 2 -17 31 -53 39 -47 5 3 8
2 7 -3 -1 -4 5 -19 14 -33 14 -20 15 -33 7 -69 -9 -39 -7 -46 13 -68 23 -25
24 -25 173 -21 158 5 605 57 605 70 0 4 -17 8 -37 8 -20 0 -34 3 -30 6 3 3 -6
17 -22 29 -28 24 -60 28 -74 10 -4 -6 -10 0 -13 13 -6 22 -34 32 -34 11 0 -6
-5 -7 -12 -2 -7 4 -24 6 -37 4 -15 -2 -21 1 -17 8 4 6 15 11 24 11 13 0 14 2
4 8 -7 5 -10 15 -7 24 5 12 -11 15 -102 17 -60 1 -124 4 -143 6 -97 10 -221
18 -267 16 -32 -1 -53 2 -53 8 0 6 -5 11 -11 11 -5 0 -7 -6 -4 -12 4 -7 -16
11 -44 41 -48 52 -50 56 -34 73 18 21 17 23 -17 33 -20 6 -23 5 -12 -6 20 -21
14 -34 -8 -14 -22 20 -18 35 11 35 10 0 19 4 19 9 0 5 -9 7 -21 4 -15 -4 -22
0 -26 15 -2 11 -14 23 -25 25 -18 5 -17 2 8 -24z"/>
<path d="M6380 2920 c0 -5 5 -10 10 -10 6 0 10 5 10 10 0 6 -4 10 -10 10 -5 0
-10 -4 -10 -10z"/>
<path d="M8691 2894 c0 -11 3 -14 6 -6 3 7 2 16 -1 19 -3 4 -6 -2 -5 -13z"/>
<path d="M6384 2869 c-3 -6 -3 -14 2 -18 5 -3 9 -12 9 -18 0 -7 3 -13 8 -13 4
0 7 2 7 5 0 3 0 16 0 30 0 26 -14 33 -26 14z"/>
<path d="M6432 2831 c4 -13 18 -16 19 -4 0 4 -5 9 -11 12 -7 2 -11 -2 -8 -8z"/>
<path d="M6370 2809 c0 -6 8 -18 17 -27 16 -16 16 -16 10 1 -4 10 -7 23 -7 28
0 5 -4 9 -10 9 -5 0 -10 -5 -10 -11z"/>
<path d="M7890 2759 c0 -22 54 -128 62 -123 13 8 51 94 45 100 -9 9 -107 31
-107 23z"/>
<path d="M7050 2641 c0 -17 18 -21 24 -6 3 9 0 15 -9 15 -8 0 -15 -4 -15 -9z"/>
<path d="M7240 2566 c0 -2 9 -6 20 -9 11 -3 18 -1 14 4 -5 9 -34 13 -34 5z"/>
<path d="M7348 2543 c7 -3 16 -2 19 1 4 3 -2 6 -13 5 -11 0 -14 -3 -6 -6z"/>
<path d="M7888 2073 c7 -3 16 -2 19 1 4 3 -2 6 -13 5 -11 0 -14 -3 -6 -6z"/>
<path d="M8291 1902 c-7 -13 -11 -26 -8 -28 8 -8 29 25 25 38 -3 8 -9 4 -17
-10z"/>
<path d="M8320 1778 c0 -9 -6 -19 -12 -21 -10 -4 -10 -6 0 -6 14 -1 28 26 18
36 -3 4 -6 -1 -6 -9z"/>
<path d="M7600 1730 c0 -5 9 -10 20 -10 11 0 20 5 20 10 0 6 -9 10 -20 10 -11
0 -20 -4 -20 -10z"/>
<path d="M7701 1714 c0 -11 3 -14 6 -6 3 7 2 16 -1 19 -3 4 -6 -2 -5 -13z"/>
<path d="M8176 1695 c4 -8 11 -15 16 -15 6 0 5 6 -2 15 -7 8 -14 15 -16 15 -2
0 -1 -7 2 -15z"/>
<path d="M7738 1683 c6 -2 18 -2 25 0 6 3 1 5 -13 5 -14 0 -19 -2 -12 -5z"/>
<path d="M7884 1679 c-3 -5 1 -9 10 -9 8 0 21 -3 30 -6 9 -3 16 -2 16 4 0 13
-49 22 -56 11z"/>
<path d="M7960 1670 c0 -5 5 -10 10 -10 6 0 10 5 10 10 0 6 -4 10 -10 10 -5 0
-10 -4 -10 -10z"/>
<path d="M8208 1663 c6 -2 18 -2 25 0 6 3 1 5 -13 5 -14 0 -19 -2 -12 -5z"/>
<path d="M8088 1643 c6 -2 18 -2 25 0 6 3 1 5 -13 5 -14 0 -19 -2 -12 -5z"/>
<path d="M8028 1633 c6 -2 18 -2 25 0 6 3 1 5 -13 5 -14 0 -19 -2 -12 -5z"/>
<path d="M9290 1580 c-8 -5 -12 -11 -9 -14 2 -3 11 -1 19 4 8 5 12 11 9 14 -2
3 -11 1 -19 -4z"/>
<path d="M9670 1570 c0 -5 12 -10 28 -9 24 0 25 1 7 9 -27 12 -35 12 -35 0z"/>
<path d="M9670 1518 c0 -7 4 -19 9 -27 7 -10 9 -7 8 12 -2 26 -17 39 -17 15z"/>
<path d="M9727 1514 c12 -3 24 -14 26 -25 4 -15 4 -14 3 3 -1 17 -8 23 -26 25
-21 1 -21 0 -3 -3z"/>
<path d="M9770 1505 c0 -8 7 -15 15 -15 8 0 15 7 15 15 0 8 -7 15 -15 15 -8 0
-15 -7 -15 -15z"/>
<path d="M9787 1419 c4 -13 8 -18 11 -10 2 7 -1 18 -6 23 -8 8 -9 4 -5 -13z"/>
<path d="M9761 1414 c0 -11 3 -14 6 -6 3 7 2 16 -1 19 -3 4 -6 -2 -5 -13z"/>
<path d="M6430 1136 c0 -2 14 -6 30 -8 17 -3 30 -1 30 4 0 4 -13 8 -30 8 -16
0 -30 -2 -30 -4z"/>
</g>
</svg>
